<svg xmlns="http://www.w3.org/2000/svg" width="48" height="48" viewBox="0 0 32 32" version="1" id="food">
  <path fill="#3a6c87" d="M32 16c0 8.836-7.164 16-16 16S0 24.836 0 16 7.164 0 16 0s16 7.164 16 16z"></path>
  <path d="M17.738 31.824c.495-.054 1.007-.05 1.487-.148a15.887 15.887 0 0 0 5.72-2.408 16.083 16.083 0 0 0 2.367-1.956 15.953 15.953 0 0 0 4.363-8.088c.101-.489.099-1.01.153-1.515l-8.736-8.736-.084-.086c-.11-.11-.23-.21-.346-.315-.105-.095-.206-.194-.314-.285-.137-.114-.281-.217-.424-.324-.11-.082-.215-.169-.328-.246-.146-.1-.3-.188-.451-.28-.125-.075-.246-.156-.374-.226-.14-.077-.287-.143-.431-.213-.147-.071-.29-.147-.442-.21-.14-.06-.288-.106-.431-.16-.16-.058-.317-.126-.48-.177-.15-.046-.304-.077-.456-.117-.168-.044-.333-.096-.506-.13-.003-.002-.006-.002-.01-.003a9.98 9.98 0 0 0-.974-.148h-.004C16.697 6.018 16.351 6 16 6c-4.317 0-8.018 2.819-9.428 6.695l3.614 3.614-.106.158-.512-.512-3.347-2.467c0 .881-.176 1.676-.176 2.557 0 .34.017.676.05 1.008.016.148.047.292.07.44.026.182.046.368.083.548l.02.078c.063.295.139.585.228.87.032.1.073.195.108.294.072.207.14.415.226.615.05.117.112.228.166.342.084.177.163.355.256.526.076.14.165.27.248.406.084.137.162.28.252.412.11.162.234.315.353.47.075.098.143.2.221.294.11.132.231.256.348.382.097.106.187.217.289.319l.021.021 8.754 8.754z" opacity=".25"></path>
  <path fill="#fff" d="M16 6c-4.317 0-8.018 2.82-9.427 6.696l3.524 2.555.44-.617c.089-.088.089-.088.177-.088.264-.088.616.265.44.529l-.44.705.352.264.088-.088c.353-.44 1.057-.529 1.498-.264.44.352.617.969.264 1.497l-.088.089.353.264.44-.617c.088-.088.176-.176.264-.176.265 0 .441.352.265.617l-.44.616.352.265.088-.088c.352-.44 1.057-.617 1.498-.265.44.353.616.97.264 1.498l-.088.088.44.353.529-.705c.088-.088.088-.088.176-.088.264-.088.617.352.44.528l-.528.705.617.44c.264.265-.088.794-.44.617l-.617-.44-.53.705c-.087.176-.352.264-.528.088-.264-.088-.264-.353-.176-.529l.529-.705-.44-.352-.089.176c-.352.44-.97.617-1.498.264-.44-.352-.528-.969-.176-1.497l.088-.177-.352-.264-.529.793c-.088.176-.352.176-.529.088-.176-.088-.176-.352-.088-.528l.529-.793-.352-.265-.089.088c-.352.44-.969.617-1.497.265-.44-.353-.529-1.058-.265-1.498l.088-.176-.352-.265-.529.793a.424.424 0 0 1-.528.177c-.176-.089-.176-.441-.088-.53l.528-.792-3.348-2.467c0 .881-.176 1.674-.176 2.555 0 5.463 4.493 9.956 10.044 9.956 5.55 0 9.868-4.493 9.868-9.956C25.956 10.581 21.639 6 16 6zm-.705 2.026c.353.089.353.617 0 .705-.969 0-1.85.44-2.555 1.058-.264.264-.793-.265-.529-.53.793-.792 1.939-1.233 3.084-1.233zm1.586.177c3.26 0 5.991 2.467 6.167 5.638a.379.379 0 0 1-.352.353.379.379 0 0 1-.352-.353c-.265-2.819-2.555-5.022-5.463-4.934-.352-.088-.352-.616 0-.704zm-4.67 3.26c.089 0 .177 0 .265.088l.793.528.088-.088c.352-.44.969-.617 1.498-.264.44.352.616 1.057.264 1.498l-.088.176.617.44.528-.704c0-.089.088-.089.176-.089.265-.088.617.353.353.53l-.705.528.529.352.176-.176c.352-.44.969-.617 1.498-.264.44.352.616.969.264 1.497l-.088.177.705.528.528-.705c.088-.088.088-.176.265-.176.264-.088.528.353.352.617l-.529.705.53.352.087-.176c.353-.44 1.057-.617 1.498-.264.44.352.529.969.264 1.497l-.088.177.44.352.441-.705c.088-.088.176-.176.265-.176.264 0 .44.352.264.617l-.353.617.265.176c.176.088.264.352.088.528-.088.177-.353.177-.529.088l-.352-.176-.529.705a.424.424 0 0 1-.528.176c-.177-.088-.177-.44-.089-.528l.53-.793-.441-.353-.089.088c-.352.441-.969.617-1.41.265-.44-.353-.616-.97-.264-1.498l.089-.088-.53-.353-.528.705a.424.424 0 0 1-.528.176c-.177-.088-.177-.44-.088-.528l.528-.705-.705-.529v.088c-.352.441-1.057.617-1.497.265-.441-.353-.617-.97-.265-1.498v-.088l-.528-.353-.53.705c-.263.265-.792-.088-.616-.44l.529-.705-.617-.44-.088.176c-.352.44-.97.528-1.498.264-.44-.352-.617-.97-.264-1.498l.088-.088-.793-.529c-.264-.176-.176-.616.088-.616.176-.088.264-.088.264-.088z"></path>
</svg>
