<svg xmlns="http://www.w3.org/2000/svg" width="48" height="48" viewBox="0 0 32 32" version="1" id="food">
  <path fill="#5dc560" d="M32 16c0 8.836-7.164 16-16 16S0 24.836 0 16 7.164 0 16 0s16 7.164 16 16z"></path>
  <path d="M17.496 31.85c.578-.055 1.17-.06 1.729-.174a15.887 15.887 0 0 0 5.72-2.408 16.083 16.083 0 0 0 2.367-1.956 15.953 15.953 0 0 0 3.43-5.084c.108-.255.155-.54.25-.802l-5.742-5.742a2.557 2.557 0 0 0-1.07-.63l-5.858-5.857c-.617-.617-1.147-.883-1.853-.883-.464 0-.977.1-1.39.373-.139.092-.266.2-.376.333h-.088v.09c-3.53 3-6.09 5.029-7.148 6-.088 0-.264.088-.352.265a4.699 4.699 0 0 0 .088 6.178c.041.044.083.086.125.129L17.496 31.85z" opacity=".25"></path>
  <path fill="#fff" d="M16.469 8.314c-.618 0-1.324.177-1.765.706h-.088v.089c-3.53 3-6.09 5.03-7.149 6-.088 0-.264.089-.353.265a4.699 4.699 0 0 0 .089 6.178c1.147 1.235 2.735 1.677 4.324 1.324.441.264.882.53 1.412.617 1.677.442 3.618.089 4.942-.706 2.118-1.235 3.795-2.382 5.471-2.735.971 0 1.765-.618 2.207-1.324-3.442 0-6.09 1.677-8.12 2.824-1.058.618-2.117 1.147-3.353 1.147-.882 0-2.206-.441-3.442-1.059-.353-.353-.53-.794-.706-1.324 1.412.971 3.177 1.677 4.148 1.677 1.06 0 1.942-.441 3-1.059 2.03-1.235 4.943-3 8.738-2.912h.088c.088-.177.088-.353.088-.53a2.561 2.561 0 0 0-2.56-2.559h-.088c-2.47-.088-4.5-.265-6.089-.353.265-.706.618-1.235.971-1.853.97-.97.97-2.56.088-3.53-.618-.618-1.147-.883-1.853-.883zm-.265 1.412c.177 0 .265.089.265.265 0 .177-.088.265-.265.265-.176 0-.265-.088-.265-.265 0-.176.177-.265.265-.265zm.794.706a.38.38 0 0 1 .353.353c0 .177-.176.265-.353.265-.176 0-.264-.088-.264-.265-.089-.176.088-.353.264-.353zm-2.03.177c.177 0 .265.176.265.353 0 .176-.088.265-.264.265-.177 0-.265-.089-.265-.265-.088-.177.088-.353.265-.353zm1.677 1.059c.177 0 .265.176.265.265 0 .176-.088.264-.265.264-.176 0-.264-.088-.264-.264-.089-.089.088-.265.264-.265zm-3.441.265c.176 0 .264.088.264.264 0 .177-.088.265-.264.265-.177 0-.265-.088-.265-.265 0-.176.088-.264.265-.264zm1.941.176c.177 0 .353.177.353.265 0 .176-.176.265-.353.265-.176 0-.265-.089-.265-.265 0-.177.089-.265.265-.265zm.706.97c.177 0 .265.09.265.266 0 .176-.088.264-.265.264-.176 0-.265-.088-.265-.264 0-.177.089-.265.265-.265zm-3.53 0c.177 0 .353.09.353.266 0 .176-.176.264-.353.264-.176 0-.265-.088-.265-.264 0-.177.089-.265.265-.265zm1.853.354c.177 0 .265.088.265.265 0 .176-.088.264-.265.264-.176 0-.353-.176-.353-.264 0-.089.177-.265.353-.265zm-3.794.706c.176 0 .264.088.264.265 0 .176-.088.264-.264.264-.177 0-.265-.088-.265-.264 0-.089.088-.265.265-.265zm-1.06.794c.177 0 .265.088.265.265 0 .176-.088.265-.264.265-.177 0-.265-.177-.265-.265-.088-.177.088-.265.265-.265zm6.178.353c.088 0 .177.088.177.088.088.089.176.265 0 .442-.089.088-.353.088-.442 0-.088-.089-.088-.265 0-.442.089 0 .177-.088.265-.088zm3.53.353c.088 0 .177 0 .177.088.088.089.088.265 0 .442-.089.088-.265.088-.442 0-.088-.089-.088-.265 0-.442.089 0 .265-.088.265-.088zm-10.06.618c.176 0 .353.088.353.265 0 .176-.177.264-.353.264-.177 0-.265-.088-.265-.264 0-.177.088-.265.265-.265zm12.796.353c.088 0 .176 0 .176.088.089.088.089.265 0 .441-.088.089-.264.089-.44 0-.089-.088-.089-.264 0-.44.087-.09.087-.09.264-.09zm2.383.441c.088 0 .088 0 .176.088.088.089.088.265 0 .442-.088.088-.265.088-.441 0-.088-.089-.177-.265 0-.442.088-.088.176-.088.265-.088zm-9.002.177c.794 0 1.5.176 1.942.44.441.266.706.619.706.883 0 .265-.265.53-.706.795-.442.264-1.148.44-1.942.44s-1.412-.176-1.853-.44c-.441-.265-.706-.53-.706-.795 0-.264.265-.617.706-.882.441-.353 1.059-.441 1.853-.441zm-6.442.264c.176 0 .265.177.265.265 0 .177-.089.265-.265.265-.177 0-.265-.088-.265-.265 0-.176.088-.265.265-.265zm-1.236.177c.177 0 .265.176.265.265 0 .176-.088.264-.265.264-.176 0-.264-.088-.264-.264 0-.177.088-.265.264-.265zm3.707.088c.088 0 .176 0 .265.088.088.089.088.353 0 .442-.089.088-.265.088-.442 0-.088-.089-.088-.265 0-.442 0 0 .089-.088.177-.088zm8.56.265c.088 0 .177 0 .177.088.088.088.088.353 0 .441-.089.089-.265.089-.442 0-.088-.088-.088-.264 0-.44.089-.09.089-.09.265-.09zm-11.031.882c.176 0 .265.177.265.353 0 .177-.089.265-.265.265-.177 0-.353-.176-.353-.265a.38.38 0 0 1 .353-.353zm-.265 1.324c.177 0 .265.088.265.265 0 .176-.088.265-.265.265-.176 0-.265-.177-.265-.265-.088-.177.089-.265.265-.265zm3.442 0c.088 0 .176 0 .265.088.088.089.088.265 0 .442-.089.088-.265.176-.442 0-.088-.089-.088-.265 0-.442.089 0 .089-.088.177-.088zm2.647.706c.089 0 .177 0 .265.088.088.089.088.353 0 .442-.088.088-.265.088-.441 0-.088-.089-.088-.265 0-.442.088-.088.088-.088.176-.088z"></path>
</svg>
