<svg width="32" height="32" viewBox="0 0 32 32" fill="none" xmlns="http://www.w3.org/2000/svg">
<path d="M32 16C32 24.84 24.84 32 16 32C7.16 32 0 24.84 0 16C0 7.16 7.16 0 16 0C24.84 0 32 7.16 32 16Z" fill="#F57367"/>
<path opacity="0.25" d="M31.7299 18.8501L24.6899 11.8101L21.2099 10.3901L12.7299 10.3501L9.1899 11.0401L5.9199 12.6101L5.3999 16.4601L6.2999 19.1101L18.9099 31.7201C25.4299 30.5201 30.5599 25.3801 31.7399 18.8501H31.7299Z" fill="black"/>
<path d="M14.05 13.7698C11.78 14.5798 12.77 15.4699 14.03 16.1099C15.29 16.7499 17.03 18.1698 17.75 18.6198C18.48 19.0698 19.69 18.9398 19.93 17.7798C20.18 16.6198 19.81 15.2298 18.75 14.2298C17.69 13.2298 15.32 13.3098 14.05 13.7698Z" fill="white"/>
<path d="M21.3299 17.0596C21.2699 16.9796 21.1399 17.0196 21.1399 17.1196C21.1199 17.6396 21.0599 18.5896 20.8199 18.9596C20.7799 19.0196 20.8199 19.0996 20.8799 19.1196C21.4799 19.2896 22.3499 19.1196 22.8899 18.7096C22.9499 18.6696 22.9399 18.5797 22.8899 18.5397C22.3299 18.1597 21.6799 17.5096 21.3399 17.0596H21.3299Z" fill="white"/>
<path d="M7.73999 12.99C7.73999 12.99 7.11998 13.37 7.20998 13.98C7.29998 14.59 8.11998 15.31 9.49998 15.06C10.87 14.81 11 13.94 10.76 13.04C10.42 11.78 8.40999 12.58 7.73999 12.98V12.99Z" fill="white"/>
<path d="M22.7799 10.5698C20.4299 9.66984 17.3999 9.86984 15.7299 9.95984C14.0599 10.0498 9.95993 10.5798 8.25993 11.0098C6.83993 11.3698 5.02993 12.6798 5.11993 13.9098L5.37993 17.8598C5.37993 17.8598 5.96992 20.1698 9.31992 19.7598C11.2099 19.5098 14.0499 20.7598 15.2799 21.7598C16.5099 22.7598 17.9199 24.2998 20.7699 24.1498C24.2599 23.9698 26.6099 21.2398 26.4799 19.3098L26.1499 14.3898C26.1499 14.3898 25.7399 11.7098 22.7799 10.5698ZM24.7299 18.2398C23.6199 20.1398 21.1699 20.5798 19.7299 20.4998C18.2899 20.4198 16.8699 19.3198 15.1299 17.8898C13.0399 16.2998 10.1799 15.9298 8.65993 15.9698C7.13993 16.0198 6.52993 15.6498 6.07993 15.0898C5.12993 13.6598 6.65993 12.2498 8.01993 11.7698C10.0399 11.0598 11.7499 10.8998 16.1299 10.5598C20.5099 10.2198 22.3099 10.9198 23.8499 11.9298C25.8199 13.2198 25.8399 16.3298 24.7299 18.2398Z" fill="white"/>
<path d="M18.8399 11.31C18.8399 11.31 17.5399 11.28 16.1699 11.56C15.7999 11.63 15.0299 11.83 15.1799 12.3C15.3299 12.77 16.8399 12.53 17.9699 12.81C20.1599 13.36 20.6799 14.68 20.7899 14.87C21.1899 15.52 21.9499 16.43 22.8599 17.19C24.1499 18.27 24.6099 16.59 24.5999 15.68C24.5999 14.76 24.5699 13.64 23.2599 12.45C21.9499 11.26 18.8499 11.32 18.8499 11.32L18.8399 11.31Z" fill="white"/>
</svg>
