<svg xmlns="http://www.w3.org/2000/svg" width="48" height="48" viewBox="0 0 32 32" version="1" id="food">
  <path fill="#24c4bc" d="M32 16c0 8.836-7.164 16-16 16S0 24.836 0 16 7.164 0 16 0s16 7.164 16 16z"></path>
  <path d="M17.793 31.82c.476-.053.97-.05 1.432-.144a15.887 15.887 0 0 0 5.72-2.408 16.083 16.083 0 0 0 2.367-1.956 15.953 15.953 0 0 0 4.363-8.088c.1-.488.099-1.009.153-1.513l-5.967-5.967c-.031-.031-.07-.056-.103-.086a2.45 2.45 0 0 0-.5-.34c-.065-.032-.133-.046-.197-.072L23.414 9.6a.334.334 0 0 0-.228-.104H9.1l-.084-.084c-.166 0-.248.166-.248.332-.233 4.195.481 8.244 3.234 11.533.183.22.376.434.578.647H8.686a.358.358 0 0 0-.332.332c0 .083.04.166.103.228l9.336 9.336z" opacity=".25"></path>
  <path fill="#fff" d="M9.016 9.412c-.166 0-.249.166-.249.332-.248 4.474.58 8.783 3.812 12.18H8.685a.356.356 0 0 0-.332.332c0 .166.166.332.332.332h14.75a.356.356 0 0 0 .33-.332.356.356 0 0 0-.33-.331h-4.061c.994-1.243 1.823-2.486 2.486-3.978.994-.248 1.989-.58 2.817-1.243.912-.745 1.492-1.906 1.657-3.646.083-.828-.414-1.408-1.077-1.74a2.294 2.294 0 0 0-1.077-.248h-.746c0-.415.083-.829.083-1.243a.356.356 0 0 0-.331-.332H9.016v-.083zm10.772 8.535h.166c.166 0 .249.166.249.332.082 1.16-.498 2.237-1.492 2.734-.166.083-.331 0-.414-.083-.083-.165 0-.414.083-.497.745-.414 1.243-1.243 1.16-2.154 0-.083.083-.249.248-.332z"></path>
</svg>
