<svg width="32" height="32" viewBox="0 0 32 32" fill="none" xmlns="http://www.w3.org/2000/svg">
<path d="M32 16C32 24.84 24.84 32 16 32C7.16 32 0 24.84 0 16C0 7.16 7.16 0 16 0C24.84 0 32 7.16 32 16Z" fill="#FA9C19"/>
<path opacity="0.25" d="M17.34 31.8703C17.97 31.8203 18.62 31.8003 19.23 31.6803C21.28 31.2603 23.22 30.4403 24.95 29.2703C25.8 28.6903 26.59 28.0403 27.32 27.3103C29.54 25.1003 31.05 22.2903 31.68 19.2203C31.75 18.9103 31.73 18.5703 31.78 18.2603L22.39 8.87028L22.36 8.84028C22.3 8.78028 22.22 8.74028 22.15 8.70028C22.11 8.67028 22.07 8.64028 22.03 8.62028C21.89 8.56028 21.73 8.53027 21.58 8.53027C21.66 8.61027 21.58 8.60027 21.5 8.60027C21.3 8.60027 21.11 8.68028 20.98 8.83028C20.75 8.97028 20.6 9.23028 20.6 9.51028C20.52 10.3403 20.3 10.8603 19.92 11.2403C19.53 11.6403 19.04 11.9303 18.49 12.0703C18.3 12.1403 18.11 12.2003 17.93 12.2503C17.75 12.3003 17.55 12.3303 17.37 12.3703H17.22C17.07 12.4503 16.92 12.4503 16.77 12.4503C16.42 12.5203 16.09 12.6403 15.77 12.8003L15.34 12.3703H14.74C14.22 12.4503 13.91 12.5203 13.84 12.5203C11.89 13.0503 9.92998 14.7003 9.70998 16.6503C9.63998 17.1803 9.63998 17.8503 9.70998 18.5303C9.77998 19.2103 9.93998 19.8003 10.31 20.2603L11.74 21.6903H8.43998C8.28998 21.6903 8.13998 21.9203 8.20998 22.0703C8.27998 22.2203 8.28998 22.5203 8.35998 22.8203C8.39998 22.9103 8.45998 22.9803 8.52998 23.0603C8.52998 23.0603 8.53998 23.0803 8.54998 23.0903L17.35 31.8903L17.34 31.8703Z" fill="black"/>
<path d="M21.35 7.67007C21.14 7.67007 20.93 7.75008 20.79 7.91008C20.54 8.06008 20.39 8.34007 20.39 8.63007C20.31 9.51007 20.07 10.0701 19.67 10.4601C19.26 10.8901 18.73 11.1901 18.15 11.3401C17.75 11.5001 17.35 11.5801 16.95 11.6601H16.79C16.63 11.7401 16.47 11.7401 16.31 11.7401C15.11 11.9801 14.31 12.6201 13.91 13.2601C13.51 13.9801 13.51 14.9401 13.99 15.8101C14.07 15.9701 14.07 16.2101 13.91 16.2901C13.75 16.3701 13.51 16.3701 13.43 16.2101C12.79 15.1701 12.71 13.9701 13.27 13.0201C13.59 12.4601 14.07 11.9801 14.79 11.6601H14.15C13.59 11.7401 13.27 11.8201 13.19 11.8201C11.12 12.3801 9.04001 14.1401 8.80001 16.2101C8.72001 16.7701 8.72001 17.4901 8.80001 18.2101C8.88001 18.9301 9.04001 19.5701 9.44001 20.0501C9.84001 20.4501 10.4 20.6901 10.96 20.7701C11.52 20.8501 12.16 20.8501 12.64 20.8501H19.98C20.7 20.7701 21.34 20.3701 21.82 19.7301C22.3 19.0901 22.54 18.2101 22.54 17.2601C22.54 16.3101 22.3 15.3401 21.82 14.7101C21.6 14.3401 21.26 14.0601 20.86 13.9101C20.7 14.4701 20.54 15.1101 20.46 15.5101C20.38 15.9901 20.3 16.2301 20.3 16.3101C19.97 17.7201 18.71 18.7101 17.27 18.7001C16.63 18.7001 15.99 18.4601 15.43 18.0601C15.19 17.8201 15.59 17.3401 15.83 17.5001C16.23 17.8201 16.71 17.9801 17.27 17.9801C18.39 17.9801 19.34 17.1701 19.5 16.0601C19.5 16.0601 19.58 15.7401 19.66 15.2601C19.74 14.7801 19.9 14.2201 20.14 13.5801V13.4201C20.38 12.8601 20.62 12.2201 21.02 11.8201C21.34 11.4201 21.66 11.2601 22.06 11.2601C22.22 11.3401 22.46 11.3401 22.7 11.3401C22.94 11.3401 23.26 11.2601 23.42 11.1001C23.9 10.7001 23.98 9.90007 23.5 9.42007C23.24 9.17007 22.9 9.03008 22.54 9.02008C22.54 8.94008 22.62 8.94008 22.62 8.86008C22.62 8.14008 22.14 7.58008 21.42 7.58008C21.5 7.66008 21.42 7.66008 21.34 7.66008L21.35 7.67007ZM7.46001 21.5601C7.30001 21.5601 7.14001 21.8001 7.22001 21.9601C7.30001 22.1201 7.30001 22.4401 7.38001 22.7601C7.54001 23.0801 7.86001 23.3201 8.42001 23.4801H22.63C23.03 23.4001 23.35 23.1601 23.51 22.8401C23.67 22.5201 23.67 22.2001 23.67 21.8801C23.67 21.7201 23.51 21.5601 23.35 21.5601H7.47001H7.46001Z" fill="white"/>
</svg>
