<svg width="32" height="32" viewBox="0 0 32 32" fill="none" xmlns="http://www.w3.org/2000/svg">
<path d="M32 16C32 24.84 24.84 32 16 32C7.16 32 0 24.84 0 16C0 7.16 7.16 0 16 0C24.84 0 32 7.16 32 16Z" fill="#47B1E6"/>
<path opacity="0.25" d="M7.83998 22.91L16.89 31.96C24.73 31.53 31.06 25.48 31.91 17.75L23.83 9.66998L20.27 8.47998L11.46 9.21999L7.34998 13.67L8.94998 15.34L7.34998 17.67L8.90999 19.26L8.56998 20.19L7.84998 22.91H7.83998Z" fill="black"/>
<path d="M7.33997 21.67C7.33997 22.16 7.50997 22.58 7.85997 22.93C8.20997 23.28 8.62996 23.45 9.11996 23.45H23.34C23.83 23.45 24.25 23.28 24.6 22.93C24.95 22.58 25.12 22.16 25.12 21.67V19H7.33997V21.67Z" fill="white"/>
<path d="M22.71 8.82995C21.1 7.89995 18.94 7.43994 16.23 7.43994C13.52 7.43994 11.36 7.89995 9.74997 8.82995C8.13997 9.75995 7.33997 11.0699 7.33997 12.7699V13.6599H25.12V12.7699C25.12 11.0699 24.32 9.74995 22.71 8.82995Z" fill="white"/>
<path d="M22.14 15C21.31 15 20.75 15.15 20.45 15.44C20.15 15.74 19.74 15.88 19.21 15.88C18.68 15.88 18.25 15.73 17.94 15.44C17.63 15.14 17.06 15 16.23 15C15.4 15 14.83 15.15 14.52 15.44C14.21 15.74 13.79 15.88 13.25 15.88C12.71 15.88 12.3 15.73 12.01 15.44C11.71 15.14 11.15 15 10.32 15C9.48996 15 8.91997 15.15 8.60997 15.44C8.29997 15.74 7.87997 15.88 7.33997 15.88V17.66C8.16997 17.66 8.73997 17.51 9.04997 17.22C9.35997 16.92 9.77996 16.78 10.32 16.78C10.86 16.78 11.27 16.93 11.56 17.22C11.86 17.52 12.42 17.66 13.25 17.66C14.08 17.66 14.65 17.51 14.96 17.22C15.27 16.92 15.69 16.78 16.23 16.78C16.77 16.78 17.19 16.93 17.5 17.22C17.81 17.52 18.38 17.66 19.21 17.66C20.04 17.66 20.62 17.51 20.94 17.22C21.27 16.92 21.7 16.78 22.23 16.78C22.76 16.78 23.17 16.93 23.45 17.22C23.73 17.52 24.29 17.66 25.12 17.66V15.88C24.65 15.88 24.24 15.73 23.9 15.44C23.56 15.14 22.97 15 22.14 15Z" fill="white"/>
</svg>
