<svg xmlns="http://www.w3.org/2000/svg" width="48" height="48" viewBox="0 0 32 32" version="1" id="food">
  <path fill="#f37a5d" d="M32 16c0 8.836-7.164 16-16 16S0 24.836 0 16 7.164 0 16 0s16 7.164 16 16z"></path>
  <path d="M17.793 31.82c.476-.053.97-.05 1.432-.144a15.887 15.887 0 0 0 5.72-2.408 16.083 16.083 0 0 0 2.367-1.956 15.953 15.953 0 0 0 3.43-5.084c.224-.528.35-1.102.516-1.658l-8.408-8.408c-.03-.029-.065-.051-.094-.08a8.399 8.399 0 0 0-.74-.646c-1.743-1.162-3.9-1.743-6.057-1.743-2.158 0-4.316.58-5.893 1.743-1.41.995-2.407 2.49-2.656 4.482l.746.746h-.713l-.05-.05c-.005-.005-.024-.001-.03-.005a.302.302 0 0 0-.12-.023l-.007-.006h-.074C6.498 16.83 6 17.41 6 18.24a1.697 1.697 0 0 0 .102.555c.038.112.087.22.146.322.017.03.03.06.049.088.068.105.144.202.23.29l.905.903h-.27c0 .332.082.58.248.913.096.168.212.316.338.45.015.016.024.038.04.053L17.792 31.82z" opacity=".25"></path>
  <path fill="#fff" d="M15.959 9.693c-2.158 0-4.316.58-5.893 1.743-1.41.996-2.406 2.49-2.655 4.481h17.344c-.249-1.909-1.328-3.402-2.738-4.481-1.743-1.162-3.9-1.743-6.058-1.743zM7.162 16.58C6.498 16.83 6 17.41 6 18.24c0 .664.415 1.327.996 1.576H24.92c.581-.249 1.079-.912 1.079-1.576a1.6 1.6 0 0 0-1.245-1.577H7.411c0-.083-.083-.083-.25-.083.167 0 0 0 0 0zm15.684.83c.415 0 .83.249 1.08.415.248.249.414.58.414.58.083.167 0 .416-.166.416s-.415 0-.415-.166c0 0-.083-.166-.249-.332-.166-.166-.332-.332-.664-.25-.331.084-.414.167-.497.333-.083.083-.166.249-.25.332-.165.083-.331.166-.58.166a.753.753 0 0 1-.581-.25c-.166-.082-.25-.248-.25-.331-.082-.166-.165-.25-.414-.25-.166 0-.25 0-.25.084-.082 0-.082.083-.165.166s-.166.249-.249.332c-.166.083-.332.249-.581.249-.249 0-.415-.083-.58-.166-.167-.083-.25-.25-.333-.332-.166-.166-.166-.25-.498-.25-.332 0-.415.084-.58.25a1.146 1.146 0 0 0-.25.332c-.083.083-.249.249-.498.249s-.414-.166-.497-.25c-.083-.082-.166-.248-.25-.331-.082-.166-.248-.25-.58-.25-.25 0-.332.084-.332.084l-.166.166c-.083.083-.083.249-.25.332-.082.083-.331.249-.58.249a.753.753 0 0 1-.581-.25c-.166-.082-.166-.248-.249-.331-.083-.166-.166-.25-.58-.25-.167 0-.25 0-.333.084-.083 0-.083.083-.166.166s-.083.249-.249.332c-.083.083-.332.249-.58.249a.753.753 0 0 1-.582-.25c-.166-.082-.249-.248-.332-.331-.166-.166-.166-.25-.498-.25-.58 0-.912.582-.912.582a.4.4 0 0 1-.498.166c-.332-.083-.332-.332-.332-.498 0 0 .498-.996 1.577-.996.497 0 .83.332.995.58l.166.167c.083.083.083.083.166.083s.083 0 .083-.083c0 0 .083-.083.166-.25.083-.082.166-.248.415-.414.166-.083.415-.166.747-.166.581 0 .913.332 1.079.58.083.084.083.167.166.25 0 0 0 .083.083.083s.083 0 .166-.083c0 0 .083-.083.166-.25.083-.082.166-.248.332-.414.166-.083.415-.166.747-.166.58 0 .913.249 1.162.498.083.083.165.249.165.249h.083l.25-.25c.248-.248.58-.497 1.078-.497.581 0 .83.332.996.58.083.084.166.167.166.25.083.083.083.083.166.083s.166 0 .166-.083c0 0 .083-.083.166-.25.083-.082.166-.248.332-.331.166-.083.332-.166.58-.166.499 0 .83.332.997.58l.166.167c.083.083.083.083.166.083s.083 0 .166-.083l.166-.166c.249-.166.498-.498 1.078-.581zM7.162 20.398c0 .332.083.581.249.913.332.581.83.996 1.577.996h14.44c.497 0 .912-.332 1.161-.83.166-.249.25-.664.25-1.079H7.161z"></path>
</svg>
