<svg xmlns="http://www.w3.org/2000/svg" width="48" height="48" viewBox="0 0 32 32" version="1" id="food">
  <path fill="#e64c65" d="M32 16c0 8.836-7.164 16-16 16S0 24.836 0 16 7.164 0 16 0s16 7.164 16 16z"></path>
  <path d="M17.69 31.83c.51-.054 1.039-.053 1.535-.154a15.887 15.887 0 0 0 5.72-2.408 16.083 16.083 0 0 0 2.367-1.956 15.953 15.953 0 0 0 4.363-8.088c.097-.47.093-.972.147-1.456l-8.795-8.795C21.2 7.144 18.687 6 15.955 6 10.493 6 6 10.494 6 16.045c0 2.731 1.124 5.22 2.93 7.025l8.76 8.76z" opacity=".25"></path>
  <path fill="#fff" d="M15.956 6C10.493 6 6 10.493 6 16.044 6 21.507 10.493 26 15.956 26 21.419 26 26 21.507 26 16.044 26 10.581 21.419 6 15.956 6zM14.81 8.026c.352 0 .704 0 1.057.089a.485.485 0 0 1 .264.44c0 .176-.264.264-.44.264-1.146-.352-2.38.088-3.084 1.058-.088.176-.352.264-.529.088-.176-.176-.176-.44 0-.529.705-.88 1.762-1.41 2.732-1.41zm2.73.177c.089 0 .089 0 0 0h.265c2.908.704 5.198 2.907 5.991 5.727.088.176-.088.44-.264.44-.176.088-.44-.088-.44-.264a7.395 7.395 0 0 0-5.463-5.287c-.176 0-.352-.088-.352-.264 0-.176.088-.352.264-.352zm-5.902 3.171h.88c1.146.089 2.203.265 3.173.793 1.938.97 3.7 2.732 5.286 5.463a5.13 5.13 0 0 1 1.674-.264h.793c.088 0 .176 0 .264.088.088 0 .088 0 .176.088 0 .088.089.088.089.176v.264c-1.146 2.027-1.146 2.115-2.467 4.406-.088.088-.265.176-.353.176-.088 0-.176-.088-.264-.088-.088-.088-.176-.088-.264-.265a1.918 1.918 0 0 1-.441-.704c-.264-.44-.44-1.058-.529-1.674-.616 0-1.145 0-1.762-.089l.353-1.057c.088-.264-.177-.528-.44-.44-.089 0-.265.088-.265.264l-.44 1.145v.088c-.353-.088-.706-.088-1.058-.176 0-.088 0-.088.088-.088l.617-1.85c.088-.264-.088-.529-.353-.529-.088 0-.264.088-.264.265l-.705 1.938c0 .088-.088.088-.088.176-.352-.088-.793-.264-1.145-.352l.88-2.38c.089-.175-.087-.528-.352-.44-.176 0-.264.088-.352.265l-.881 2.379c-.617-.265-1.145-.53-1.586-.882-1.85-1.321-2.996-3.26-3.436-5.814 0-.177.088-.353.264-.353 1.234-.352 2.115-.44 2.908-.529zm-.44 1.41a.602.602 0 0 0-.618.617c0 .352.265.617.617.617a.602.602 0 0 0 .617-.617.602.602 0 0 0-.617-.617z"></path>
</svg>
