<svg width="32" height="32" viewBox="0 0 32 32" fill="none" xmlns="http://www.w3.org/2000/svg">
<path d="M32 16C32 24.84 24.84 32 16 32C7.16 32 0 24.83 0 16C0 7.17 7.17 0 16 0C24.83 0 32 7.16 32 16Z" fill="#84BD55"/>
<path opacity="0.25" d="M17.69 31.8302C18.2 31.7802 18.73 31.7802 19.22 31.6802C21.27 31.2602 23.21 30.4402 24.94 29.2702C25.79 28.6902 26.58 28.0402 27.31 27.3102C29.53 25.1002 31.04 22.2902 31.67 19.2202C31.77 18.7502 31.76 18.2502 31.82 17.7602L23.02 8.96023C21.19 7.13023 18.68 5.99023 15.95 5.99023C10.49 5.99023 6 10.4802 6 16.0402C6 18.7702 7.12 21.2602 8.93 23.0602L17.69 31.8202V31.8302Z" fill="black"/>
<path d="M15.96 6C10.5 6 6 10.49 6 16.04C6 21.59 10.49 26 15.96 26C21.43 26 26 21.51 26 16.04C26 10.57 21.42 6 15.96 6ZM14.81 8.02C15.16 8.02 15.51 8.02 15.87 8.11C16.03 8.19 16.14 8.36 16.13 8.55C16.13 8.73 15.87 8.81 15.69 8.81C14.54 8.46 13.31 8.9 12.61 9.87C12.52 10.05 12.26 10.13 12.08 9.96C11.9 9.78 11.9 9.52 12.08 9.43C12.78 8.55 13.84 8.02 14.81 8.02ZM17.54 8.2C17.6 8.2 17.6 8.2 17.54 8.2H17.8C20.71 8.9 23 11.11 23.79 13.93C23.88 14.11 23.7 14.37 23.53 14.37C23.35 14.46 23.09 14.28 23.09 14.11C22.38 11.47 20.28 9.44 17.63 8.82C17.45 8.82 17.28 8.73 17.28 8.56C17.28 8.39 17.37 8.21 17.54 8.21V8.2ZM11.64 11.37H12.52C13.67 11.46 14.72 11.64 15.69 12.16C17.63 13.13 19.39 14.89 20.98 17.62C21.52 17.44 22.09 17.35 22.65 17.36H23.44C23.53 17.36 23.62 17.36 23.7 17.45C23.76 17.45 23.82 17.48 23.88 17.54C23.88 17.63 23.97 17.63 23.97 17.72V17.98C22.82 20.01 22.82 20.09 21.5 22.39C21.41 22.48 21.24 22.57 21.15 22.57C21.06 22.57 20.97 22.48 20.89 22.48C20.8 22.39 20.71 22.39 20.63 22.22C20.43 22.02 20.28 21.78 20.19 21.52C19.93 21.08 19.75 20.46 19.66 19.85C19.04 19.85 18.51 19.85 17.9 19.76L18.25 18.7C18.34 18.44 18.07 18.17 17.81 18.26C17.72 18.26 17.55 18.35 17.55 18.52L17.11 19.67V19.76C16.76 19.67 16.4 19.67 16.05 19.58C16.05 19.52 16.08 19.49 16.14 19.49L16.76 17.64C16.85 17.38 16.67 17.11 16.41 17.11C16.32 17.11 16.15 17.2 16.15 17.37L15.45 19.31C15.45 19.4 15.36 19.4 15.36 19.49C15.01 19.4 14.57 19.23 14.22 19.14L15.1 16.76C15.19 16.59 15.01 16.23 14.75 16.32C14.57 16.32 14.49 16.41 14.4 16.58L13.52 18.96C12.9 18.7 12.37 18.43 11.93 18.08C10.08 16.76 8.93 14.82 8.49 12.27C8.49 12.09 8.58 11.92 8.75 11.92C9.98 11.57 10.86 11.48 11.66 11.39L11.64 11.37ZM11.2 12.78C10.87 12.78 10.59 13.03 10.58 13.37C10.58 13.38 10.58 13.39 10.58 13.4C10.58 13.75 10.85 14.02 11.2 14.02C11.53 14.02 11.81 13.77 11.82 13.43C11.82 13.42 11.82 13.41 11.82 13.4C11.82 13.07 11.57 12.79 11.23 12.78C11.22 12.78 11.21 12.78 11.2 12.78Z" fill="white"/>
</svg>
