<svg width="32" height="32" viewBox="0 0 32 32" fill="none" xmlns="http://www.w3.org/2000/svg">
<path d="M32 16C32 24.84 24.84 32 16 32C7.16 32 0 24.84 0 16C0 7.16 7.16 0 16 0C24.84 0 32 7.16 32 16Z" fill="#F2C200"/>
<path opacity="0.25" d="M19.8201 31.2498C20.6401 31.0498 21.4601 30.8298 22.2301 30.4998C24.1301 29.6998 25.8601 28.5298 27.3101 27.0698C29.5301 24.8598 31.0401 22.0498 31.6701 18.9798C31.8801 17.9398 32.0001 16.8598 32.0001 15.7598C32.0001 15.5398 31.9501 15.3398 31.9401 15.1298L24.2201 7.40984C24.2201 7.40984 24.1501 7.34984 24.1101 7.31984C24.0301 7.23984 23.9601 7.23984 23.8001 7.31984C23.7701 7.27984 23.7301 7.24984 23.6901 7.21984C23.6901 7.21984 23.6101 7.19984 23.5701 7.23984C23.4201 7.23984 23.2601 7.38984 23.1101 7.54984L19.3501 14.1298L19.1001 14.5698C19.1001 14.5698 18.8201 14.2698 18.8001 14.3298C18.7801 14.3898 17.4601 14.0298 17.4201 14.0698L8.86005 14.3698L7.74005 14.8898C7.59005 14.8898 7.43005 15.0498 7.43005 15.1998V15.2798C7.43005 15.5498 7.45005 15.8198 7.47005 16.0898C7.48005 16.1798 7.49005 16.2698 7.50005 16.3498C7.53005 16.6298 7.58005 16.8998 7.64005 17.1698C7.68005 17.3398 7.73005 17.5098 7.78005 17.6798C7.81005 17.7698 7.83005 17.8598 7.86005 17.9398C7.93005 18.1698 8.02005 18.3998 8.11005 18.6198L8.13005 18.6598C8.23005 18.8998 8.35005 19.1298 8.47005 19.3498C8.50005 19.4098 8.54005 19.4698 8.57005 19.5298C8.79005 19.9198 9.04005 20.2898 9.32005 20.6398C9.38005 20.7098 9.44005 20.7898 9.50005 20.8598C9.65005 21.0398 9.81006 21.2098 9.98006 21.3798L10.0101 21.4098C10.0101 21.4098 19.8301 31.2298 19.8301 31.2398L19.8201 31.2498Z" fill="black"/>
<path d="M20.0201 14.8798H24.2701C24.35 14.8798 24.5801 14.9598 24.5801 15.0298V15.5798M19.2401 14.3098L19.3301 14.1498L23.1001 7.54984C23.2601 7.38984 23.4101 7.22984 23.5601 7.22984C23.6701 7.18984 23.6901 7.19984 23.7901 7.19984C24.0201 7.22984 24.0301 7.23984 24.1101 7.31984C24.4201 7.54984 24.57 7.93984 24.34 8.31984L20.2901 14.4598M24.5801 15.1898V15.2698C24.5001 19.0498 22.1101 22.2998 18.7101 23.4598V23.9998C18.7001 24.1698 18.5701 24.2998 18.4001 24.3098H13.6901C13.5201 24.2998 13.3901 24.1698 13.3801 23.9998V23.5398C9.98005 22.3798 7.43005 19.1398 7.43005 15.2798V15.1998C7.43005 15.0498 7.59005 14.8898 7.74005 14.8898H18.9401C19.0801 14.8898 19.2501 14.8898 19.4801 14.8898H20.2501M23.7301 7.77984C23.7301 7.83317 23.7301 7.83317 23.7301 7.77984L21.9501 10.7898L23.8801 7.92984C23.8801 7.87651 23.8301 7.82651 23.7301 7.77984Z" fill="white"/>
<path d="M21.76 10.7101L23.56 7.6901L24.04 7.6001L24.07 7.9701L23.41 9.0801L21.93 10.9301L21.76 10.7101Z" fill="white"/>
<path d="M23.47 14.6399C23.28 14.4499 22.93 14.2499 22.25 14.1399C20.69 13.8799 21.18 14.2499 19.58 13.7699C17.98 13.2899 15.95 11.9199 13.99 11.9899C12.03 12.0599 12.25 13.2499 9.95004 13.3999C8.48004 13.4899 8.27004 14.2599 8.31004 14.7999V14.6399H23.47Z" fill="white"/>
</svg>
