<svg width="32" height="32" viewBox="0 0 32 32" fill="none" xmlns="http://www.w3.org/2000/svg">
<path d="M32 16C32 24.84 24.84 32 16 32C7.16 32 0 24.84 0 16C0 7.16 7.16 0 16 0C24.84 0 32 7.16 32 16Z" fill="#84BD55"/>
<path opacity="0.25" d="M17.11 31.9401C24.77 31.4101 30.94 25.5101 31.87 17.9601L22.88 8.97006L22.47 8.56006L17.63 12.0801L14.49 8.94006L11.71 9.74006L12.04 16.0401L11.1 25.9201L17.12 31.9401H17.11Z" fill="black"/>
<path d="M12.98 12.5102C13.57 12.5102 14.06 12.3102 14.47 11.9002C14.88 11.4902 15.08 11.0002 15.08 10.4102C15.08 9.82022 14.88 9.33021 14.47 8.92021C14.06 8.51021 13.57 8.31021 12.98 8.31021H12.35V7.47021H11.09V8.31021H10.46C9.86998 8.31021 9.37999 8.51021 8.96999 8.92021C8.55999 9.33021 8.35999 9.82022 8.35999 10.4102C8.35999 11.0002 8.55999 11.4902 8.96999 11.9002C9.37999 12.3102 9.86998 12.5102 10.46 12.5102H11.09V13.3502H8.36999V17.5402H11.09V18.3802H10.46C9.86998 18.3802 9.37999 18.5802 8.96999 18.9902C8.55999 19.4002 8.35999 19.8902 8.35999 20.4802C8.35999 21.0702 8.55999 21.5602 8.96999 21.9702C9.37999 22.3802 9.86998 22.5802 10.46 22.5802H11.09V25.9302H12.35V22.5802H12.98C13.57 22.5802 14.06 22.3802 14.47 21.9702C14.88 21.5602 15.08 21.0702 15.08 20.4802C15.08 19.8902 14.88 19.4002 14.47 18.9902C14.06 18.5802 13.57 18.3802 12.98 18.3802H12.35V17.5402H15.07V13.3502H12.35V12.5102H12.98Z" fill="white"/>
<path d="M20.73 12.5102H21.36C21.95 12.5102 22.44 12.3102 22.85 11.9002C23.26 11.4902 23.46 11.0002 23.46 10.4102C23.46 9.82022 23.26 9.33021 22.85 8.92021C22.44 8.51021 21.95 8.31021 21.36 8.31021H20.73V7.47021H19.47V8.31021H18.84C18.25 8.31021 17.76 8.51021 17.35 8.92021C16.94 9.33021 16.74 9.82022 16.74 10.4102C16.74 11.0002 16.94 11.4902 17.35 11.9002C17.76 12.3102 18.25 12.5102 18.84 12.5102H19.47V13.3502H16.75V17.5402H19.47V18.3802H18.84C18.25 18.3802 17.76 18.5802 17.35 18.9902C16.94 19.4002 16.74 19.8902 16.74 20.4802C16.74 21.0702 16.94 21.5602 17.35 21.9702C17.76 22.3802 18.25 22.5802 18.84 22.5802H19.47V25.9302H20.73V22.5802H21.36C21.95 22.5802 22.44 22.3802 22.85 21.9702C23.26 21.5602 23.46 21.0702 23.46 20.4802C23.46 19.8902 23.26 19.4002 22.85 18.9902C22.44 18.5802 21.95 18.3802 21.36 18.3802H20.73V17.5402H23.45V13.3502H20.73V12.5102Z" fill="white"/>
<path d="M21.4199 11.9899C21.3499 11.9899 21.2899 11.9399 21.2699 11.8699C21.2599 11.7899 21.3099 11.7099 21.3899 11.6999C21.5499 11.6699 21.7799 11.6099 21.9599 11.4899C22.2499 11.2999 22.4099 11.0099 22.4899 10.7899C22.5199 10.7099 22.6099 10.6699 22.6799 10.6999C22.7599 10.7299 22.7999 10.8199 22.7699 10.8899C22.6699 11.1399 22.4799 11.4999 22.1299 11.7299C21.9099 11.8799 21.6399 11.9499 21.4499 11.9799C21.4499 11.9799 21.4299 11.9799 21.4199 11.9799V11.9899Z" fill="#819B47"/>
<path d="M13.11 11.9903C13.04 11.9903 12.98 11.9403 12.96 11.8703C12.95 11.7903 13 11.7103 13.08 11.7003C13.24 11.6703 13.47 11.6103 13.65 11.4903C13.94 11.3003 14.1 11.0103 14.18 10.7903C14.21 10.7103 14.3 10.6803 14.37 10.7003C14.45 10.7303 14.49 10.8203 14.46 10.8903C14.36 11.1403 14.17 11.4903 13.82 11.7303C13.6 11.8803 13.33 11.9503 13.14 11.9803C13.14 11.9803 13.12 11.9803 13.11 11.9803V11.9903Z" fill="#819B47"/>
<path d="M13.11 22.05C13.04 22.05 12.98 22 12.96 21.93C12.95 21.85 13 21.77 13.08 21.76C13.24 21.73 13.47 21.67 13.65 21.55C13.94 21.36 14.1 21.07 14.18 20.85C14.21 20.77 14.3 20.73 14.37 20.76C14.45 20.79 14.49 20.88 14.46 20.95C14.36 21.2 14.17 21.55 13.82 21.79C13.6 21.94 13.33 22.01 13.14 22.04C13.14 22.04 13.12 22.04 13.11 22.04V22.05Z" fill="#819B47"/>
<path d="M21.35 22.05C21.28 22.05 21.22 22 21.2 21.93C21.19 21.85 21.24 21.77 21.32 21.76C21.48 21.73 21.71 21.67 21.89 21.55C22.18 21.36 22.34 21.07 22.42 20.85C22.45 20.77 22.54 20.73 22.61 20.76C22.69 20.79 22.73 20.88 22.7 20.95C22.6 21.2 22.41 21.56 22.06 21.79C21.84 21.94 21.57 22.01 21.38 22.04C21.38 22.04 21.36 22.04 21.35 22.04V22.05Z" fill="#819B47"/>
</svg>
