<svg xmlns="http://www.w3.org/2000/svg" width="48" height="48" viewBox="0 0 32 32" version="1" id="food">
  <path fill="#ffcc0f" d="M32 16c0 8.836-7.164 16-16 16S0 24.836 0 16 7.164 0 16 0s16 7.164 16 16z"></path>
  <path d="M19.818 31.49c.824-.203 1.643-.423 2.41-.748a15.953 15.953 0 0 0 5.084-3.43 15.953 15.953 0 0 0 4.363-8.088c.214-1.04.325-2.12.325-3.224 0-.215-.054-.416-.063-.629l-7.72-7.719a1.017 1.017 0 0 0-.108-.093c-.077-.078-.154-.078-.308 0a.504.504 0 0 0-.115-.096h-.002c-.039-.02-.077-.02-.116.02-.154 0-.308.154-.463.308l-4.015 7.027a.389.389 0 0 0-.078.155c-.02.058-.038.115-.076.154h-11.2c-.154 0-.308.156-.308.31v.077c0 .273.016.543.04.81.01.089.023.176.034.264a8.596 8.596 0 0 0 .14.822c.04.173.086.343.135.512.026.088.048.177.077.264.075.23.156.456.25.677l.015.041.002.004.002.004c.102.238.218.469.34.695.033.061.067.12.101.18a8.792 8.792 0 0 0 .75 1.108c.059.073.116.148.176.22.152.18.31.353.475.52l.027.03.008.007 9.818 9.818z" opacity=".25"></path>
  <path fill="#fff" d="M23.569 7.482c.077-.077.154 0 .231.077.155-.077.232-.077.31 0 .308.232.463.618.231 1.004l-4.325 6.565h4.248c.077 0 .232.077.232.154v.078s-.078 0-.155.077h.232v.077c-.077 3.784-2.472 7.028-5.87 8.187v.54a.332.332 0 0 1-.309.31h-4.711a.332.332 0 0 1-.309-.31v-.463c-3.398-1.159-5.947-4.402-5.947-8.264v-.077c0-.155.155-.31.31-.31h11.198c.077-.076.077-.23.154-.308l4.016-7.028c.155-.155.31-.31.464-.31zm.154.54c0 .078 0 .078 0 0l-1.776 3.013 1.93-2.858c0-.077 0-.077-.154-.155z"></path>
</svg>
