<svg xmlns="http://www.w3.org/2000/svg" width="48" height="48" viewBox="0 0 32 32" version="1" id="food">
  <path fill="#f37a5d" d="M32 16c0 8.836-7.164 16-16 16S0 24.836 0 16 7.164 0 16 0s16 7.164 16 16z"></path>
  <path d="M16.38 31.96c.97-.022 1.926-.096 2.845-.284a15.887 15.887 0 0 0 5.72-2.408 16.083 16.083 0 0 0 2.367-1.956 15.953 15.953 0 0 0 3.43-5.084c.363-.858.628-1.767.838-2.695l-9.158-9.158a1.947 1.947 0 0 0-1.385-.57c-.14 0-.216.066-.351.07l-.176-.176c-.034-.033-.071-.06-.106-.092a2.745 2.745 0 0 0-.37-.279c-.054-.033-.106-.067-.161-.096a2.047 2.047 0 0 0-.283-.115c-.044-.015-.084-.037-.13-.049a1.777 1.777 0 0 0-.452-.06h-.022l-.777-.778a3.505 3.505 0 0 0-.479-.394 3.385 3.385 0 0 0-.42-.252c-.038-.02-.078-.033-.117-.05a3.105 3.105 0 0 0-.375-.141c-.044-.014-.088-.028-.132-.04a2.811 2.811 0 0 0-.504-.085h-.145c-1.522 0-2.755 1.087-3.045 2.537-1.087 0-1.955.87-1.955 1.957a1.91 1.91 0 0 0 .123.65c.05.141.112.275.19.4l.03.055c.077.115.163.221.259.317l.556.556v6.862c-.434.072-.796.362-.941.724-.073 0-.219-.072-.291-.072-.725 0-1.23.58-1.303 1.232-.217.073-.507.072-.724.29a1.2 1.2 0 0 0-.364.869c0 .362.218.725.436.943l7.373 7.373z" opacity=".25"></path>
  <path fill="#fff" d="M16.036 7.268c-1.522 0-2.753 1.087-3.043 2.536-1.087 0-1.957.87-1.957 1.957 0 .797.507 1.522 1.16 1.811v7.03c-.435.072-.797.362-.942.724-.073 0-.218-.072-.29-.072-.725 0-1.232.58-1.305 1.232-.217.072-.507.072-.724.29a1.2 1.2 0 0 0-.363.869c0 .362.218.725.435.942.218.145.507.145.87.145h9.927c1.16 0 2.102-.942 2.102-2.102v-.87c.87-.144 1.522-.869 1.522-1.738v-4.058c0-.87-.653-1.594-1.522-1.74v-.652c.652-.362 1.087-1.014 1.087-1.811 0-1.087-.87-1.957-1.957-1.957-.145 0-.217.073-.362.073-.435-.507-1.015-.87-1.667-.87h-.217c-.507-.942-1.522-1.666-2.609-1.739h-.145zm1.884 5.725c.363.217.652.362 1.087.362.29 0 .508-.072.725-.217.362.29.797.507 1.304.507h.29v.652c0 .073-.072.073-.072.145 0 3.478.072 4.348.072 6.957v1.087c0 .87-.652 1.521-1.522 1.521h-5.507c-.87 0-1.522-.652-1.522-1.521v-8.769h.218c.072 0 .217-.072.29-.072v2.174c0 .58.507 1.087 1.087 1.087v3.768c0 .145.144.29.29.29.144 0 .29-.145.29-.29V16.76c.29-.218.507-.58.507-.942v-2.247c.217.073.362.073.507.073.797 0 1.45-.217 1.956-.652zm-1.014 3.043c-.145 0-.218.145-.218.29v4.058c0 .145.145.29.29.29s.29-.145.29-.29v-4.058c0-.145-.217-.29-.362-.29zm2.464 0c-.145 0-.218.145-.218.29v4.42c0 .145.145.29.29.29s.29-.145.29-.29v-4.42c0-.145-.145-.29-.362-.29z"></path>
</svg>
