<svg width="32" height="32" viewBox="0 0 32 32" fill="none" xmlns="http://www.w3.org/2000/svg">
<path d="M32 16C32 24.84 24.84 32 16 32C7.16 32 0 24.84 0 16C0 7.16 7.16 0 16 0C24.84 0 32 7.16 32 16Z" fill="#F37A5D"/>
<path d="M32 16C32 24.84 24.84 32 16 32C7.16 32 0 24.84 0 16C0 7.16 7.16 0 16 0C24.84 0 32 7.16 32 16Z" fill="#BF8AD4"/>
<path opacity="0.25" d="M31.84 18.1299L22.82 9.10986L17.37 9.31986H13.34L11.52 12.3199L11.3 21.6899L7.20996 25.5799L13.4 31.7699C14.25 31.9099 15.11 31.9999 16 31.9999C24.11 31.9999 30.8 25.9599 31.84 18.1299Z" fill="black"/>
<path d="M15.4 5.49023C13.63 5.49023 12.2 6.75023 11.86 8.44023C10.6 8.44023 9.58998 9.45023 9.58998 10.7102C9.58998 11.6402 10.18 12.4802 10.94 12.8102V20.9802C10.43 21.0602 10.01 21.4002 9.84998 21.8202C9.76998 21.8202 9.59998 21.7402 9.50998 21.7402C8.66998 21.7402 8.07998 22.4102 7.98997 23.1702C7.73997 23.2502 7.39998 23.2502 7.14998 23.5102C6.87998 23.7802 6.72998 24.1402 6.72998 24.5202C6.72998 24.9402 6.97997 25.3602 7.23997 25.6102C7.48997 25.7802 7.82998 25.7802 8.24998 25.7802H19.79C21.14 25.7802 22.23 24.6902 22.23 23.3402V22.3302C23.24 22.1602 24 21.3202 24 20.3102V15.5902C24 14.5802 23.24 13.7402 22.23 13.5702V12.8102C22.99 12.3902 23.49 11.6302 23.49 10.7102C23.49 9.45023 22.48 8.44023 21.22 8.44023C21.05 8.44023 20.97 8.52024 20.8 8.52024C20.29 7.93024 19.62 7.51023 18.86 7.51023H18.61C18.02 6.42023 16.84 5.57023 15.58 5.49023H15.41H15.4ZM17.59 12.1502C18.01 12.4002 18.35 12.5702 18.85 12.5702C19.19 12.5702 19.44 12.4902 19.69 12.3202C20.11 12.6602 20.62 12.9102 21.21 12.9102H21.55V13.6702C21.55 13.7502 21.47 13.7502 21.47 13.8402C21.47 17.8802 21.55 18.8902 21.55 21.9302V23.1902C21.55 24.2002 20.79 24.9602 19.78 24.9602H13.38C12.37 24.9602 11.61 24.2002 11.61 23.1902V13.0002H11.86C11.94 13.0002 12.11 12.9202 12.2 12.9202V15.4502C12.2 16.1202 12.79 16.7102 13.46 16.7102V21.0902C13.46 21.2602 13.63 21.4302 13.8 21.4302C13.97 21.4302 14.14 21.2602 14.14 21.0902V16.5402C14.48 16.2902 14.73 15.8702 14.73 15.4502V12.8402C14.98 12.9202 15.15 12.9202 15.32 12.9202C16.25 12.9202 17.01 12.6702 17.59 12.1602V12.1502ZM16.41 15.6802C16.24 15.6802 16.16 15.8502 16.16 16.0202V20.7402C16.16 20.9102 16.33 21.0802 16.5 21.0802C16.67 21.0802 16.84 20.9102 16.84 20.7402V16.0202C16.84 15.8502 16.59 15.6802 16.42 15.6802H16.41ZM19.28 15.6802C19.11 15.6802 19.03 15.8502 19.03 16.0202V21.1602C19.03 21.3302 19.2 21.5002 19.37 21.5002C19.54 21.5002 19.71 21.3302 19.71 21.1602V16.0202C19.71 15.8502 19.54 15.6802 19.29 15.6802H19.28Z" fill="white"/>
</svg>
