<svg xmlns="http://www.w3.org/2000/svg" width="48" height="48" viewBox="0 0 32 32" version="1" id="food">
  <path fill="#5dc560" d="M32 16c0 8.836-7.164 16-16 16S0 24.836 0 16 7.164 0 16 0s16 7.164 16 16z"></path>
  <path d="M18.9 31.709c.106-.02.22-.012.325-.033a15.887 15.887 0 0 0 5.72-2.408 16.083 16.083 0 0 0 2.367-1.956 15.953 15.953 0 0 0 4.363-8.088c.073-.353.062-.733.11-1.095L23.63 9.973c-.106-.106-.228-.198-.344-.295-.072-.06-.137-.125-.213-.182a5.302 5.302 0 0 0-.718-.459l-.102-.101c-.022-.022-.043-.027-.064-.038-.019-.009-.025-.017-.04-.021-.034-.01-.058-.014-.058-.014-.071 0-.144.07-.215.07l-.496.64A8.92 8.92 0 0 0 15.484 7.3c-4.758 0-8.664 3.905-8.664 8.734 0 .3.016.598.045.89.009.083.027.163.037.245.028.21.054.42.096.625l.006.025a8.622 8.622 0 0 0 .861 2.352c.123.225.256.442.397.654l.037.059c.08.117.169.228.254.342.084.111.165.226.254.334.047.056.1.108.148.164.13.148.258.296.397.435l.017.018 9.531 9.531z" opacity=".25"></path>
  <path fill="#fff" d="M15.485 7.3c-4.758 0-8.664 3.907-8.664 8.736 0 4.828 3.906 8.663 8.664 8.663 4.758 0 8.734-3.835 8.734-8.663v-.356h.355c.142 0 .213-.07.284-.213.924-2.485-.213-5.255-2.556-6.462-.071-.142-.213-.142-.213-.142-.071 0-.142.071-.213.071l-.497.64C19.887 8.223 17.757 7.3 15.485 7.3zm0 .64c2.13 0 4.047.781 5.468 2.13l-.781.923a6.744 6.744 0 0 0-4.616-1.846 6.82 6.82 0 0 0-6.818 6.817c0 3.764 3.054 6.889 6.818 6.889 3.763 0 6.817-3.054 6.817-6.889v-.355h1.278v.355c0 4.545-3.621 8.096-8.095 8.096-4.545.071-8.096-3.55-8.096-8.096a7.971 7.971 0 0 1 8.025-8.024zm6.746 1.633c1.917 1.065 2.84 3.338 2.13 5.54l-7.03.07 4.26-4.9.64-.71zm-8.522 1.136c.071 0 .355 0 .426.142a.437.437 0 0 1 .071.498c-.07.142-.142.284-.284.355-.213.213-.497.355-.78.284-.214 0-.356-.071-.427-.213-.142-.142-.213-.284-.142-.497.071-.142.142-.285.284-.285h.568c-.07 0 .071-.07.213-.142-.07-.07 0-.142.071-.142zm8.38.142c-.355 0-.71.356-.71.71 0 .427.284.71.71.71.355 0 .71-.283.71-.71.142-.354-.213-.71-.71-.71zm-6.036.356c.142-.071.284 0 .355.07.07.072.142.143.142.214a.879.879 0 0 0 .142.213c-.071-.071.07 0 .213.07.07 0 .142.072.213.072.07.07.142.284.07.426-.07.213-.212.284-.354.355-.142.07-.284 0-.426 0-.284-.071-.568-.213-.71-.497-.071-.213-.071-.355-.071-.497a.64.64 0 0 1 .426-.426zm6.036.213c.07 0 .142.07.142.142a.153.153 0 0 1-.142.142.153.153 0 0 1-.142-.142c.142-.071.142-.142.142-.142zm.852 1.49c-.213 0-.355.143-.426.214-.071.142-.213.284-.142.497.071.142.213.213.284.284.071.071.213.071.284.071h.284c-.07 0 .071.071.142.142s.071.071.213.142c.142 0 .355 0 .426-.142.071-.142.071-.355.071-.497-.07-.142-.142-.284-.213-.355-.426-.213-.639-.355-.923-.355zm-3.054.143h-.142c-.07 0-.142.07-.213.142-.142.213-.142.426-.07.64a.727.727 0 0 0 .354.425c.285.284.64.497 1.066.426.213 0 .426-.142.568-.284.142-.142.213-.355.142-.639-.071-.142-.213-.284-.355-.284s-.213-.071-.355-.071h-.426s-.142-.071-.284-.213c0-.071-.142-.142-.285-.142.143 0 .143 0 0 0zm-6.817.213c.355 0 .71.355.71.71s-.355.71-.71.71a.712.712 0 0 1-.71-.71c0-.355.355-.71.71-.71zm7.315.71c.213.071.426.071.497.071h.07v.071c-.07.071-.141.071-.141.071s-.213-.142-.426-.213zm-9.516.568h.213c.142.071.355.142.426.284.07.142 0 .355-.071.426-.071.071-.142.071-.213.142-.142.071-.213.071-.213.071s-.071.142-.142.213c-.071.071-.071.142-.142.213a.542.542 0 0 1-.355.143c-.214-.072-.356-.214-.356-.427a.437.437 0 0 1 .071-.497c.142-.284.427-.426.64-.497 0 0 .07 0 .142-.07zm4.332 0c.213 0 .355.142.426.213.142.142.213.284.142.497a.554.554 0 0 1-.284.284h-.569l-.142.142c-.07 0-.07.071-.213.142-.07 0-.284-.07-.355-.142a.437.437 0 0 1-.07-.497c.07-.142.141-.213.283-.355s.426-.284.782-.284zm1.42 2.202h.213c.142 0 .355.142.426.284.07.142 0 .355-.071.426-.071.07-.142.07-.213.142-.071.07-.213.07-.213.07s-.071.072-.142.214c-.071.07-.071.142-.142.213-.071.07-.213.142-.355.07-.213-.07-.355-.212-.355-.354a.607.607 0 0 1 0-.497c.142-.284.426-.426.639-.497.07-.071.142-.071.213-.071zm-3.977.07c.142 0 .284.072.426.143a.48.48 0 0 1 .284.426.538.538 0 0 1-.142.284s0 .07-.07.07c-.072.072-.214.072-.285.072h-.213s-.071.07-.213.142c-.071.07-.071.07-.213.142-.071.07-.284.07-.426 0-.213-.142-.213-.355-.213-.497 0-.142.07-.355.213-.426.284-.284.568-.355.852-.355zm7.03 1.137c.356 0 .71.284.71.71s-.354.71-.71.71c-.355 0-.71-.355-.71-.71s.355-.71.71-.71zm-2.343.994c.355 0 .71.355.71.71s-.355.71-.71.71a.712.712 0 0 1-.71-.71c0-.426.284-.71.71-.71zm-3.622.781h.071c.142 0 .142.071.213.142.071.071.213.142.142.142h.284c.071 0 .142 0 .213.071.071.071.213.142.284.213a.552.552 0 0 1-.142.568c-.07.143-.213.214-.426.214-.284 0-.568-.142-.78-.356-.143-.07-.214-.213-.285-.355a.437.437 0 0 1 .071-.497.542.542 0 0 1 .355-.142z"></path>
</svg>
