<svg width="32" height="32" viewBox="0 0 32 32" fill="none" xmlns="http://www.w3.org/2000/svg">
<path d="M32 16C32 24.84 24.84 32 16 32C7.16 32 0 24.84 0 16C0 7.16 7.16 0 16 0C24.84 0 32 7.16 32 16Z" fill="#47B1E6"/>
<path opacity="0.25" d="M32 16.0003C32 15.8703 31.98 15.7503 31.98 15.6303L23.36 7.01025L18.96 9.87025L16.36 7.30025L14.79 15.0003L13.46 16.4103L12.27 20.4803L11.49 26.5203L16.93 31.9603C25.33 31.4703 31.99 24.5303 31.99 16.0103L32 16.0003Z" fill="black"/>
<path d="M11.5 26.2603V17.6503C10.65 17.4203 9.94 16.9503 9.36 16.2503C8.78 15.5503 8.5 14.7303 8.5 13.8003V7.80029C8.5 7.25029 8.95 6.80029 9.5 6.80029C10.05 6.80029 10.5 7.25029 10.5 7.80029V13.8003H11.5V7.80029C11.5 7.25029 11.95 6.80029 12.5 6.80029C13.05 6.80029 13.5 7.25029 13.5 7.80029V13.8003H14.5V7.80029C14.5 7.25029 14.95 6.80029 15.5 6.80029C16.05 6.80029 16.5 7.25029 16.5 7.80029V13.8003C16.5 14.7303 16.21 15.5503 15.64 16.2503C15.07 16.9503 14.35 17.4203 13.5 17.6503V26.2603C13.5 26.5603 13.26 26.8003 12.96 26.8003H12.03C11.73 26.8003 11.49 26.5603 11.49 26.2603H11.5ZM21.5 26.2603V18.8003H19.04C18.74 18.8003 18.5 18.5603 18.5 18.2603V11.9703C18.5 10.5603 19.02 9.17029 20.03 8.19029C20.85 7.39029 21.82 6.94029 22.93 6.82029C23.24 6.79029 23.5 7.05029 23.5 7.36029V26.2603C23.5 26.5603 23.26 26.8003 22.96 26.8003H22.03C21.73 26.8003 21.49 26.5603 21.49 26.2603H21.5Z" fill="white"/>
<path d="M10.49 13.2905V13.7905H10.99C10.71 13.7905 10.49 13.5605 10.49 13.2905Z" fill="white"/>
<path d="M11 13.8003H11.5V13.3003C11.5 13.5803 11.27 13.8003 11 13.8003Z" fill="white"/>
<path d="M13.5 13.2905V13.7905H14C13.72 13.7905 13.5 13.5605 13.5 13.2905Z" fill="white"/>
<path d="M14 13.8003H14.5V13.3003C14.5 13.5803 14.27 13.8003 14 13.8003Z" fill="white"/>
</svg>
