<svg xmlns="http://www.w3.org/2000/svg" width="48" height="48" viewBox="0 0 32 32" version="1" id="food">
  <path fill="#239fdb" d="M32 16c0 8.836-7.164 16-16 16S0 24.836 0 16 7.164 0 16 0s16 7.164 16 16z"></path>
  <path d="M21.488 30.973c.242-.089.505-.131.74-.23a15.953 15.953 0 0 0 5.084-3.43 15.953 15.953 0 0 0 3.43-5.084c.216-.51.336-1.065.498-1.6l-5.61-5.61-.001-.001a.349.349 0 0 0-.238-.108h-7.586l-10.897.088c-.174 0-.349 0-.523.174-.087.087-.175.261-.088.435 0 .088.088.175.088.262l15.103 15.104z" opacity=".25"></path>
  <path fill="#fff" d="M6.907 14.997c-.174 0-.348 0-.523.175-.087.087-.174.261-.087.436 0 .087.087.174.087.261.262.262.523.349.96.523.871.349 2.092.698 3.138.698h6.451c.35 0 .698-.087.872-.349.175-.174.262-.436.262-.697 0-.262 0-.262-.087-.436h7.41a.375.375 0 0 0 .349-.35.375.375 0 0 0-.349-.348h-7.585l-10.898.087z"></path>
</svg>
