<svg width="23" height="24" viewBox="0 0 23 24" fill="none" xmlns="http://www.w3.org/2000/svg">
<path d="M14.0056 8L15.1119 9.2L8.84264 16L7.7363 14.8L14.0056 8ZM4.04849 4H18.7997C19.8231 4 20.6436 4.89 20.6436 6V10C20.1546 10 19.6856 10.2107 19.3398 10.5858C18.994 10.9609 18.7997 11.4696 18.7997 12C18.7997 12.5304 18.994 13.0391 19.3398 13.4142C19.6856 13.7893 20.1546 14 20.6436 14V18C20.6436 19.11 19.8231 20 18.7997 20H4.04849C3.55946 20 3.09045 19.7893 2.74466 19.4142C2.39886 19.0391 2.20459 18.5304 2.20459 18V14C3.22796 14 4.04849 13.11 4.04849 12C4.04849 11.4696 3.85422 10.9609 3.50843 10.5858C3.16263 10.2107 2.69362 10 2.20459 10V6C2.20459 5.46957 2.39886 4.96086 2.74466 4.58579C3.09045 4.21071 3.55946 4 4.04849 4ZM4.04849 6V8.54C4.60874 8.8904 5.07403 9.39466 5.39754 10.0021C5.72105 10.6094 5.89138 11.2985 5.89138 12C5.89138 12.7015 5.72105 13.3906 5.39754 13.9979C5.07403 14.6053 4.60874 15.1096 4.04849 15.46V18H18.7997V15.46C18.2395 15.1096 17.7742 14.6053 17.4507 13.9979C17.1271 13.3906 16.9568 12.7015 16.9568 12C16.9568 11.2985 17.1271 10.6094 17.4507 10.0021C17.7742 9.39466 18.2395 8.8904 18.7997 8.54V6H4.04849ZM9.11922 8C9.88444 8 10.5022 8.67 10.5022 9.5C10.5022 10.33 9.88444 11 9.11922 11C8.354 11 7.7363 10.33 7.7363 9.5C7.7363 8.67 8.354 8 9.11922 8ZM13.729 13C14.4942 13 15.1119 13.67 15.1119 14.5C15.1119 15.33 14.4942 16 13.729 16C12.9638 16 12.3461 15.33 12.3461 14.5C12.3461 13.67 12.9638 13 13.729 13Z" fill="#667085"/>
</svg>
