<svg width="25" height="25" viewBox="0 0 25 25" fill="none" xmlns="http://www.w3.org/2000/svg">
<path d="M8.45361 15.5V17.5M12.4536 11.5V17.5M16.4536 7.5V17.5M8.25361 21.5H16.6536C18.3338 21.5 19.1738 21.5 19.8156 21.173C20.3801 20.8854 20.839 20.4265 21.1266 19.862C21.4536 19.2202 21.4536 18.3802 21.4536 16.7V8.3C21.4536 6.61984 21.4536 5.77976 21.1266 5.13803C20.839 4.57354 20.3801 4.1146 19.8156 3.82698C19.1738 3.5 18.3338 3.5 16.6536 3.5H8.25361C6.57346 3.5 5.73338 3.5 5.09164 3.82698C4.52716 4.1146 4.06821 4.57354 3.78059 5.13803C3.45361 5.77976 3.45361 6.61984 3.45361 8.3V16.7C3.45361 18.3802 3.45361 19.2202 3.78059 19.862C4.06821 20.4265 4.52716 20.8854 5.09164 21.173C5.73338 21.5 6.57346 21.5 8.25361 21.5Z" stroke="#667085" stroke-width="2" stroke-linecap="round" stroke-linejoin="round"/>
</svg>
