<svg width="19" height="20" viewBox="0 0 19 20" fill="none" xmlns="http://www.w3.org/2000/svg">
<path fill-rule="evenodd" clip-rule="evenodd" d="M0.126953 7C0.126953 6.46957 0.321221 5.96086 0.66702 5.58579C1.01282 5.21071 1.48182 5 1.97086 5H16.7221C17.2111 5 17.6801 5.21071 18.0259 5.58579C18.3717 5.96086 18.566 6.46957 18.566 7V18C18.566 18.5304 18.3717 19.0391 18.0259 19.4142C17.6801 19.7893 17.2111 20 16.7221 20H1.97086C1.48182 20 1.01282 19.7893 0.66702 19.4142C0.321221 19.0391 0.126953 18.5304 0.126953 18V7ZM16.7221 7H1.97086V18H16.7221V7Z" fill="#667085"/>
<path fill-rule="evenodd" clip-rule="evenodd" d="M5.42813 9.50031C5.42813 9.3014 5.50098 9.11063 5.63066 8.96998C5.76033 8.82933 5.93621 8.75031 6.11959 8.75031H12.5733C12.7566 8.75031 12.9325 8.82933 13.0622 8.96998C13.1919 9.11063 13.2647 9.3014 13.2647 9.50031C13.2647 9.69922 13.1919 9.88999 13.0622 10.0306C12.9325 10.1713 12.7566 10.2503 12.5733 10.2503H6.11959C5.93621 10.2503 5.76033 10.1713 5.63066 10.0306C5.50098 9.88999 5.42813 9.69922 5.42813 9.50031ZM4.50618 12.5003C4.50618 12.3014 4.57903 12.1106 4.7087 11.97C4.83838 11.8293 5.01426 11.7503 5.19764 11.7503H13.4952C13.6786 11.7503 13.8545 11.8293 13.9841 11.97C14.1138 12.1106 14.1867 12.3014 14.1867 12.5003C14.1867 12.6992 14.1138 12.89 13.9841 13.0306C13.8545 13.1713 13.6786 13.2503 13.4952 13.2503H5.19764C5.01426 13.2503 4.83838 13.1713 4.7087 13.0306C4.57903 12.89 4.50618 12.6992 4.50618 12.5003ZM5.42813 15.5003C5.42813 15.3014 5.50098 15.1106 5.63066 14.97C5.76033 14.8293 5.93621 14.7503 6.11959 14.7503H12.5733C12.7566 14.7503 12.9325 14.8293 13.0622 14.97C13.1919 15.1106 13.2647 15.3014 13.2647 15.5003C13.2647 15.6992 13.1919 15.89 13.0622 16.0306C12.9325 16.1713 12.7566 16.2503 12.5733 16.2503H6.11959C5.93621 16.2503 5.76033 16.1713 5.63066 16.0306C5.50098 15.89 5.42813 15.6992 5.42813 15.5003ZM10.6501 2.82831C10.3043 2.45337 9.83536 2.24274 9.34642 2.24274C8.85749 2.24274 8.38857 2.45337 8.04279 2.82831L4.46654 6.70831C4.38088 6.80115 4.2792 6.87479 4.1673 6.92501C4.05541 6.97523 3.93549 7.00106 3.81439 7.00101C3.69329 7.00097 3.57339 6.97505 3.46153 6.92474C3.34967 6.87443 3.24803 6.80072 3.16244 6.70781C3.07684 6.6149 3.00895 6.50461 2.96265 6.38324C2.91634 6.26188 2.89254 6.1318 2.89258 6.00046C2.89262 5.86911 2.91652 5.73905 2.9629 5.61772C3.00928 5.49639 3.07724 5.38615 3.1629 5.29331L6.73915 1.41431C7.43071 0.664426 8.36855 0.243164 9.34642 0.243164C10.3243 0.243164 11.2621 0.664426 11.9537 1.41431L15.5309 5.29331C15.7037 5.48095 15.8008 5.73539 15.8007 6.00066C15.8006 6.26593 15.7034 6.5203 15.5304 6.70781C15.3574 6.89532 15.1228 7.00061 14.8783 7.00051C14.6337 7.00042 14.3992 6.89495 14.2263 6.70731L10.6501 2.82831Z" fill="#667085"/>
</svg>
