<svg width="25" height="24" viewBox="0 0 25 24" fill="none" xmlns="http://www.w3.org/2000/svg">
<path d="M12.2197 15C13.8766 15 15.2197 13.6569 15.2197 12C15.2197 10.3431 13.8766 9 12.2197 9C10.5629 9 9.21973 10.3431 9.21973 12C9.21973 13.6569 10.5629 15 12.2197 15Z" stroke="#667085" stroke-width="2" stroke-linecap="round" stroke-linejoin="round"/>
<path d="M18.947 14.7273C18.826 15.0015 18.7899 15.3056 18.8434 15.6005C18.8968 15.8954 19.0374 16.1676 19.247 16.3818L19.3015 16.4364C19.4706 16.6052 19.6047 16.8057 19.6962 17.0265C19.7877 17.2472 19.8348 17.4838 19.8348 17.7227C19.8348 17.9617 19.7877 18.1983 19.6962 18.419C19.6047 18.6397 19.4706 18.8402 19.3015 19.0091C19.1327 19.1781 18.9322 19.3122 18.7114 19.4037C18.4907 19.4952 18.2541 19.5423 18.0152 19.5423C17.7762 19.5423 17.5397 19.4952 17.3189 19.4037C17.0982 19.3122 16.8977 19.1781 16.7288 19.0091L16.6743 18.9545C16.46 18.745 16.1879 18.6044 15.893 18.5509C15.5981 18.4974 15.2939 18.5335 15.0197 18.6545C14.7508 18.7698 14.5215 18.9611 14.36 19.205C14.1985 19.4489 14.1118 19.7347 14.1106 20.0273V20.1818C14.1106 20.664 13.9191 21.1265 13.5781 21.4675C13.2371 21.8084 12.7747 22 12.2925 22C11.8102 22 11.3478 21.8084 11.0068 21.4675C10.6658 21.1265 10.4743 20.664 10.4743 20.1818V20.1C10.4672 19.7991 10.3698 19.5073 10.1947 19.2625C10.0196 19.0176 9.77494 18.8312 9.49245 18.7273C9.21826 18.6063 8.9141 18.5702 8.61919 18.6236C8.32429 18.6771 8.05216 18.8177 7.83791 19.0273L7.78336 19.0818C7.6145 19.2509 7.41398 19.385 7.19325 19.4765C6.97253 19.568 6.73594 19.6151 6.497 19.6151C6.25806 19.6151 6.02147 19.568 5.80074 19.4765C5.58002 19.385 5.3795 19.2509 5.21064 19.0818C5.04159 18.913 4.90748 18.7124 4.81598 18.4917C4.72448 18.271 4.67739 18.0344 4.67739 17.7955C4.67739 17.5565 4.72448 17.3199 4.81598 17.0992C4.90748 16.8785 5.04159 16.678 5.21064 16.5091L5.26518 16.4545C5.47476 16.2403 5.61535 15.9682 5.66882 15.6733C5.72229 15.3784 5.68619 15.0742 5.56518 14.8C5.44994 14.5311 5.2586 14.3018 5.0147 14.1403C4.7708 13.9788 4.48499 13.8921 4.19245 13.8909H4.03791C3.5557 13.8909 3.09323 13.6994 2.75226 13.3584C2.41128 13.0174 2.21973 12.5549 2.21973 12.0727C2.21973 11.5905 2.41128 11.1281 2.75226 10.7871C3.09323 10.4461 3.5557 10.2545 4.03791 10.2545H4.11973C4.42063 10.2475 4.71246 10.1501 4.95727 9.97501C5.20208 9.79991 5.38856 9.55521 5.49245 9.27273C5.61347 8.99853 5.64957 8.69437 5.59609 8.39947C5.54262 8.10456 5.40203 7.83244 5.19245 7.61818L5.13791 7.56364C4.96886 7.39478 4.83475 7.19425 4.74325 6.97353C4.65176 6.7528 4.60466 6.51621 4.60466 6.27727C4.60466 6.03834 4.65176 5.80174 4.74325 5.58102C4.83475 5.36029 4.96886 5.15977 5.13791 4.99091C5.30677 4.82186 5.50729 4.68775 5.72802 4.59626C5.94874 4.50476 6.18533 4.45766 6.42427 4.45766C6.66321 4.45766 6.8998 4.50476 7.12053 4.59626C7.34125 4.68775 7.54178 4.82186 7.71064 4.99091L7.76518 5.04545C7.97943 5.25503 8.25156 5.39562 8.54646 5.4491C8.84137 5.50257 9.14553 5.46647 9.41973 5.34545H9.49245C9.76134 5.23022 9.99065 5.03887 10.1522 4.79497C10.3137 4.55107 10.4004 4.26526 10.4015 3.97273V3.81818C10.4015 3.33597 10.5931 2.87351 10.9341 2.53253C11.2751 2.19156 11.7375 2 12.2197 2C12.7019 2 13.1644 2.19156 13.5054 2.53253C13.8464 2.87351 14.0379 3.33597 14.0379 3.81818V3.9C14.0391 4.19253 14.1258 4.47834 14.2873 4.72224C14.4488 4.96614 14.6781 5.15749 14.947 5.27273C15.2212 5.39374 15.5254 5.42984 15.8203 5.37637C16.1152 5.3229 16.3873 5.18231 16.6015 4.97273L16.6561 4.91818C16.8249 4.74913 17.0255 4.61503 17.2462 4.52353C17.4669 4.43203 17.7035 4.38493 17.9425 4.38493C18.1814 4.38493 18.418 4.43203 18.6387 4.52353C18.8594 4.61503 19.06 4.74913 19.2288 4.91818C19.3979 5.08704 19.532 5.28757 19.6235 5.50829C19.715 5.72901 19.7621 5.96561 19.7621 6.20455C19.7621 6.44348 19.715 6.68008 19.6235 6.9008C19.532 7.12152 19.3979 7.32205 19.2288 7.49091L19.1743 7.54545C18.9647 7.75971 18.8241 8.03183 18.7706 8.32674C18.7172 8.62164 18.7533 8.9258 18.8743 9.2V9.27273C18.9895 9.54161 19.1809 9.77093 19.4248 9.93245C19.6687 10.094 19.9545 10.1807 20.247 10.1818H20.4015C20.8838 10.1818 21.3462 10.3734 21.6872 10.7144C22.0282 11.0553 22.2197 11.5178 22.2197 12C22.2197 12.4822 22.0282 12.9447 21.6872 13.2856C21.3462 13.6266 20.8838 13.8182 20.4015 13.8182H20.3197C20.0272 13.8193 19.7414 13.906 19.4975 14.0676C19.2536 14.2291 19.0622 14.4584 18.947 14.7273Z" stroke="#667085" stroke-width="2" stroke-linecap="round" stroke-linejoin="round"/>
</svg>
