<svg width="23" height="24" viewBox="0 0 23 24" fill="none" xmlns="http://www.w3.org/2000/svg">
<path d="M20.6436 7.81952C20.6492 7.75633 20.6492 7.69271 20.6436 7.62952L18.7997 2.62952C18.7277 2.43188 18.5995 2.26426 18.4337 2.15098C18.268 2.0377 18.0732 1.98465 17.8778 1.99952H4.97044C4.7858 1.99933 4.60535 2.05928 4.45248 2.1716C4.2996 2.28393 4.18135 2.44346 4.11303 2.62952L2.26913 7.62952C2.26357 7.69271 2.26357 7.75633 2.26913 7.81952C2.23879 7.87535 2.217 7.93614 2.20459 7.99952C2.21485 8.69076 2.39011 9.36732 2.71327 9.9632C3.03643 10.5591 3.49646 11.0539 4.04849 11.3995V20.9995C4.04849 21.2647 4.14563 21.5191 4.31853 21.7066C4.49143 21.8942 4.72593 21.9995 4.97044 21.9995H17.8778C18.1223 21.9995 18.3568 21.8942 18.5297 21.7066C18.7026 21.5191 18.7997 21.2647 18.7997 20.9995V11.4395C19.3571 11.0905 19.8205 10.5893 20.144 9.98586C20.4675 9.38238 20.6397 8.69758 20.6436 7.99952C20.652 7.93987 20.652 7.87918 20.6436 7.81952ZM12.3461 19.9995H10.5022V15.9995H12.3461V19.9995ZM16.9558 19.9995H14.19V14.9995C14.19 14.7343 14.0928 14.48 13.9199 14.2924C13.747 14.1049 13.5125 13.9995 13.268 13.9995H9.5802C9.33568 13.9995 9.10118 14.1049 8.92828 14.2924C8.75538 14.48 8.65825 14.7343 8.65825 14.9995V19.9995H5.89239V11.9995C6.41742 11.9963 6.93575 11.8715 7.41274 11.6335C7.88972 11.3956 8.31436 11.0498 8.65825 10.6195C9.00432 11.0452 9.42993 11.386 9.9068 11.6195C10.3837 11.853 10.9009 11.9738 11.4241 11.9738C11.9473 11.9738 12.4645 11.853 12.9414 11.6195C13.4183 11.386 13.8439 11.0452 14.19 10.6195C14.5338 11.0498 14.9585 11.3956 15.4355 11.6335C15.9124 11.8715 16.4308 11.9963 16.9558 11.9995V19.9995ZM16.9558 9.99952C16.4668 9.99952 15.9978 9.78881 15.652 9.41374C15.3062 9.03866 15.1119 8.52996 15.1119 7.99952C15.1119 7.73431 15.0148 7.47995 14.8419 7.29242C14.669 7.10488 14.4345 6.99952 14.19 6.99952C13.9454 6.99952 13.7109 7.10488 13.538 7.29242C13.3651 7.47995 13.268 7.73431 13.268 7.99952C13.268 8.52996 13.0737 9.03866 12.7279 9.41374C12.3821 9.78881 11.9131 9.99952 11.4241 9.99952C10.9351 9.99952 10.4661 9.78881 10.1203 9.41374C9.77447 9.03866 9.5802 8.52996 9.5802 7.99952C9.5802 7.73431 9.48307 7.47995 9.31017 7.29242C9.13727 7.10488 8.90276 6.99952 8.65825 6.99952C8.41373 6.99952 8.17923 7.10488 8.00633 7.29242C7.83343 7.47995 7.7363 7.73431 7.7363 7.99952C7.74538 8.26217 7.70668 8.52418 7.6224 8.7706C7.53812 9.01702 7.40993 9.24302 7.24512 9.4357C7.08032 9.62839 6.88215 9.78397 6.66191 9.89358C6.44167 10.0032 6.20369 10.0647 5.96154 10.0745C5.47251 10.0944 4.99622 9.90278 4.63745 9.54177C4.45981 9.36302 4.31637 9.14806 4.21531 8.90918C4.11426 8.6703 4.05757 8.41217 4.04849 8.14952L5.59737 3.99952H17.2508L18.7997 8.14952C18.7648 8.65354 18.5552 9.12451 18.2131 9.46773C17.871 9.81095 17.4218 10.0009 16.9558 9.99952Z" fill="#667085"/>
</svg>
