<svg width="25" height="24" viewBox="0 0 25 24" fill="none" xmlns="http://www.w3.org/2000/svg">
<path d="M9.43362 9.13628L5.2263 4.92896M5.2263 19.0711L9.46533 14.8321M15.1584 14.8638L19.3658 19.0711M19.3658 4.92896L15.1261 9.16862M22.2974 12C22.2974 17.5228 17.8202 22 12.2974 22C6.77452 22 2.29736 17.5228 2.29736 12C2.29736 6.47715 6.77452 2 12.2974 2C17.8202 2 22.2974 6.47715 22.2974 12ZM16.2974 12C16.2974 14.2091 14.5065 16 12.2974 16C10.0882 16 8.29736 14.2091 8.29736 12C8.29736 9.79086 10.0882 8 12.2974 8C14.5065 8 16.2974 9.79086 16.2974 12Z" stroke="#667085" stroke-width="2" stroke-linecap="round" stroke-linejoin="round"/>
</svg>
