<svg width="19" height="20" viewBox="0 0 19 20" fill="none" xmlns="http://www.w3.org/2000/svg">
<path d="M17.7221 19V17C17.7221 15.1362 16.6643 13.5701 15.2328 13.126M12.3287 1.29076C13.545 1.88415 14.403 3.32131 14.403 5C14.403 6.67869 13.545 8.11585 12.3287 8.70924M13.5733 19C13.5733 17.1362 13.5733 16.2044 13.3206 15.4693C12.9838 14.4892 12.3377 13.7105 11.5244 13.3045C10.9145 13 10.1412 13 8.59476 13H6.10549C4.55902 13 3.78578 13 3.17584 13.3045C2.36259 13.7105 1.71646 14.4892 1.3796 15.4693C1.12695 16.2044 1.12695 17.1362 1.12695 19M10.6691 5C10.6691 7.20914 9.18317 9 7.35012 9C5.51708 9 4.0311 7.20914 4.0311 5C4.0311 2.79086 5.51708 1 7.35012 1C9.18317 1 10.6691 2.79086 10.6691 5Z" stroke="#667085" stroke-width="2" stroke-linecap="round" stroke-linejoin="round"/>
</svg>
