<svg width="18" height="17" viewBox="0 0 18 17" fill="none" xmlns="http://www.w3.org/2000/svg">
<path d="M0.895508 16.5003L9.34673 0.666992L17.7979 16.5003H0.895508ZM3.54612 14.8337H15.1473L9.34673 4.00033L3.54612 14.8337ZM9.34673 14.0003C9.56441 14.0003 9.74701 13.9203 9.89452 13.7603C10.042 13.6003 10.1155 13.4025 10.115 13.167C10.1145 12.9314 10.0408 12.7337 9.89375 12.5737C9.74675 12.4137 9.56441 12.3337 9.34673 12.3337C9.12904 12.3337 8.9467 12.4137 8.7997 12.5737C8.6527 12.7337 8.57895 12.9314 8.57843 13.167C8.57792 13.4025 8.65168 13.6006 8.7997 13.7612C8.94773 13.9217 9.13007 14.0014 9.34673 14.0003ZM8.57843 11.5003H10.115V7.33366H8.57843V11.5003Z" fill="#667085"/>
</svg>
