<svg width="20" height="20" viewBox="0 0 20 20" fill="none" xmlns="http://www.w3.org/2000/svg">
<path d="M8.54199 4.58326H5.66699C4.26686 4.58326 3.56679 4.58326 3.03201 4.85574C2.56161 5.09543 2.17916 5.47788 1.93947 5.94828C1.66699 6.48306 1.66699 7.18313 1.66699 8.58326L1.66699 9.58326C1.66699 10.3598 1.66699 10.7481 1.79386 11.0544C1.96302 11.4628 2.28747 11.7872 2.69585 11.9564C3.00214 12.0833 3.39042 12.0833 4.16699 12.0833V15.6249C4.16699 15.8184 4.16699 15.9151 4.17502 15.9966C4.25296 16.7879 4.879 17.414 5.6703 17.4919C5.75178 17.4999 5.84852 17.4999 6.04199 17.4999C6.23547 17.4999 6.33221 17.4999 6.41369 17.4919C7.20498 17.414 7.83103 16.7879 7.90897 15.9966C7.91699 15.9151 7.91699 15.8184 7.91699 15.6249V12.0833H8.54199C10.014 12.0833 11.8147 12.8723 13.2039 13.6296C14.0143 14.0714 14.4196 14.2923 14.685 14.2598C14.9311 14.2297 15.1172 14.1192 15.2614 13.9175C15.417 13.7001 15.417 13.2649 15.417 12.3947V4.27183C15.417 3.40159 15.417 2.96647 15.2614 2.749C15.1172 2.54734 14.9311 2.43684 14.685 2.4067C14.4196 2.37419 14.0143 2.59509 13.2039 3.03689C11.8147 3.79419 10.014 4.58326 8.54199 4.58326Z" fill="#98A2B3"/>
<path d="M18.3337 6.6666V9.99993M8.54199 4.58326H5.66699C4.26686 4.58326 3.56679 4.58326 3.03201 4.85574C2.56161 5.09543 2.17916 5.47788 1.93947 5.94828C1.66699 6.48306 1.66699 7.18313 1.66699 8.58326L1.66699 9.58326C1.66699 10.3598 1.66699 10.7481 1.79386 11.0544C1.96302 11.4628 2.28747 11.7872 2.69585 11.9564C3.00214 12.0833 3.39042 12.0833 4.16699 12.0833V15.6249C4.16699 15.8184 4.16699 15.9151 4.17502 15.9966C4.25296 16.7879 4.879 17.414 5.6703 17.4919C5.75178 17.4999 5.84852 17.4999 6.04199 17.4999C6.23547 17.4999 6.33221 17.4999 6.41369 17.4919C7.20498 17.414 7.83103 16.7879 7.90897 15.9966C7.91699 15.9151 7.91699 15.8184 7.91699 15.6249V12.0833H8.54199C10.014 12.0833 11.8147 12.8723 13.2039 13.6296C14.0143 14.0714 14.4196 14.2923 14.685 14.2598C14.9311 14.2297 15.1172 14.1192 15.2614 13.9175C15.417 13.7001 15.417 13.2649 15.417 12.3947V4.27183C15.417 3.40159 15.417 2.96647 15.2614 2.749C15.1172 2.54734 14.9311 2.43684 14.685 2.4067C14.4196 2.37419 14.0143 2.59509 13.2039 3.03689C11.8147 3.79419 10.014 4.58326 8.54199 4.58326Z" stroke="#98A2B3" stroke-width="2" stroke-linecap="round" stroke-linejoin="round"/>
</svg>
