<svg width="37" height="36" viewBox="0 0 37 36" fill="none" xmlns="http://www.w3.org/2000/svg">
<g clip-path="url(#clip0_364_825)">
<path d="M27 0.5H10C4.75329 0.5 0.5 4.75329 0.5 10V26C0.5 31.2467 4.75329 35.5 10 35.5H27C32.2467 35.5 36.5 31.2467 36.5 26V10C36.5 4.75329 32.2467 0.5 27 0.5Z" fill="white" stroke="#384250"/>
<path d="M25.5 14.75L19 21.25L12.5 14.75" stroke="#384250" stroke-width="2" stroke-linecap="round" stroke-linejoin="round"/>
</g>
<g clip-path="url(#clip1_364_825)">
<path d="M27 0.5H10C4.75329 0.5 0.5 4.75329 0.5 10V26C0.5 31.2467 4.75329 35.5 10 35.5H27C32.2467 35.5 36.5 31.2467 36.5 26V10C36.5 4.75329 32.2467 0.5 27 0.5Z" fill="white" stroke="#384250"/>
<path d="M25.5 14.75L19 21.25L12.5 14.75" stroke="#384250" stroke-width="2" stroke-linecap="round" stroke-linejoin="round"/>
</g>
<defs>
<clipPath id="clip0_364_825">
<rect width="37" height="36" fill="white"/>
</clipPath>
<clipPath id="clip1_364_825">
<rect width="37" height="36" fill="white"/>
</clipPath>
</defs>
</svg>
