<svg width="26" height="26" viewBox="0 0 26 26" fill="none" xmlns="http://www.w3.org/2000/svg">
<path d="M13.7556 1.94044C13.375 1.64441 13.1847 1.4964 12.9745 1.43951C12.7891 1.38931 12.5937 1.38931 12.4083 1.43951C12.1981 1.4964 12.0078 1.64441 11.6272 1.94044L4.27975 7.65516C3.7886 8.03716 3.54302 8.22816 3.3661 8.46737C3.20939 8.67925 3.09264 8.91795 3.0216 9.17174C2.94141 9.45825 2.94141 9.76936 2.94141 10.3916V18.2294C2.94141 19.4429 2.94141 20.0496 3.17756 20.5131C3.38528 20.9207 3.71674 21.2522 4.12443 21.4599C4.5879 21.6961 5.19463 21.6961 6.40807 21.6961H8.57474C8.8781 21.6961 9.02978 21.6961 9.14565 21.637C9.24757 21.5851 9.33044 21.5022 9.38237 21.4003C9.44141 21.2845 9.44141 21.1328 9.44141 20.8294V13.6794C9.44141 13.0727 9.44141 12.7693 9.55948 12.5376C9.66335 12.3338 9.82907 12.168 10.0329 12.0642C10.2647 11.9461 10.568 11.9461 11.1747 11.9461H14.2081C14.8148 11.9461 15.1182 11.9461 15.3499 12.0642C15.5537 12.168 15.7195 12.3338 15.8233 12.5376C15.9414 12.7693 15.9414 13.0727 15.9414 13.6794V20.8294C15.9414 21.1328 15.9414 21.2845 16.0004 21.4003C16.0524 21.5022 16.1352 21.5851 16.2372 21.637C16.353 21.6961 16.5047 21.6961 16.8081 21.6961H18.9747C20.1882 21.6961 20.7949 21.6961 21.2584 21.4599C21.6661 21.2522 21.9975 20.9207 22.2053 20.5131C22.4414 20.0496 22.4414 19.4429 22.4414 18.2294V10.3916C22.4414 9.76936 22.4414 9.45825 22.3612 9.17174C22.2902 8.91795 22.1734 8.67925 22.0167 8.46737C21.8398 8.22816 21.5942 8.03716 21.1031 7.65516L13.7556 1.94044Z" fill="#98A2B3"/>
</svg>
