<svg width="25" height="25" viewBox="0 0 25 25" fill="none" xmlns="http://www.w3.org/2000/svg">
<path d="M2.08301 2.08325H3.44359C3.69986 2.08325 3.828 2.08325 3.93111 2.13038C4.02199 2.17191 4.09899 2.23869 4.15296 2.32278C4.21419 2.41819 4.23231 2.54504 4.26855 2.79873L4.76158 6.24992M4.76158 6.24992L5.8573 14.3035C5.99635 15.3255 6.06587 15.8365 6.31019 16.2211C6.52549 16.56 6.83414 16.8295 7.199 16.9972C7.61307 17.1874 8.12878 17.1874 9.1602 17.1874H18.0747C19.0565 17.1874 19.5474 17.1874 19.9486 17.0108C20.3023 16.855 20.6058 16.6039 20.825 16.2856C21.0736 15.9245 21.1654 15.4423 21.3491 14.4778L22.7279 7.23918C22.7926 6.89972 22.8249 6.72999 22.778 6.59731C22.7369 6.48093 22.6558 6.38292 22.5492 6.32077C22.4276 6.24992 22.2549 6.24992 21.9093 6.24992H4.76158ZM10.4163 21.8749C10.4163 22.4502 9.94997 22.9166 9.37467 22.9166C8.79938 22.9166 8.33301 22.4502 8.33301 21.8749C8.33301 21.2996 8.79938 20.8333 9.37467 20.8333C9.94997 20.8333 10.4163 21.2996 10.4163 21.8749ZM18.7497 21.8749C18.7497 22.4502 18.2833 22.9166 17.708 22.9166C17.1327 22.9166 16.6663 22.4502 16.6663 21.8749C16.6663 21.2996 17.1327 20.8333 17.708 20.8333C18.2833 20.8333 18.7497 21.2996 18.7497 21.8749Z" stroke="#384250" stroke-width="2" stroke-linecap="round" stroke-linejoin="round"/>
</svg>
