<svg width="20" height="20" viewBox="0 0 20 20" fill="none" xmlns="http://www.w3.org/2000/svg">
<path d="M9.66699 11.1667C11.0477 11.1667 12.167 10.0475 12.167 8.66676C12.167 7.28604 11.0477 6.16675 9.66699 6.16675C8.28628 6.16675 7.16699 7.28604 7.16699 8.66676C7.16699 10.0475 8.28628 11.1667 9.66699 11.1667Z" fill="#384250"/>
<path d="M9.66666 18.6667C13 15.3334 16.3333 12.3485 16.3333 8.66667C16.3333 4.98477 13.3486 2 9.66666 2C5.98477 2 3 4.98477 3 8.66667C3 12.3485 6.33333 15.3334 9.66666 18.6667Z" fill="#98A2B3"/>
<path d="M9.66699 11.1667C11.0477 11.1667 12.167 10.0475 12.167 8.66676C12.167 7.28604 11.0477 6.16675 9.66699 6.16675C8.28628 6.16675 7.16699 7.28604 7.16699 8.66676C7.16699 10.0475 8.28628 11.1667 9.66699 11.1667Z" stroke="#FCFCFD" stroke-width="1.8" stroke-linecap="round" stroke-linejoin="round"/>
<path d="M9.66666 18.6667C13 15.3334 16.3333 12.3485 16.3333 8.66667C16.3333 4.98477 13.3486 2 9.66666 2C5.98477 2 3 4.98477 3 8.66667C3 12.3485 6.33333 15.3334 9.66666 18.6667Z" stroke="#98A2B3" stroke-width="1.8" stroke-linecap="round" stroke-linejoin="round"/>
</svg>
