<svg width="26" height="26" viewBox="0 0 26 26" fill="none" xmlns="http://www.w3.org/2000/svg">
<g clip-path="url(#clip0_267_443)">
<path fill-rule="evenodd" clip-rule="evenodd" d="M23 13C23 7.47716 18.5229 3 13 3C7.47716 3 3 7.47716 3 13C3 18.5229 7.47716 23 13 23C18.5229 23 23 18.5229 23 13ZM17.9144 10.0736C17.9144 10.8807 17.2611 11.5353 16.4544 11.5371L16.4509 11.5372C15.6426 11.5372 14.9873 10.8819 14.9873 10.0736C14.9873 9.26643 15.6407 8.61189 16.4474 8.61001L16.4509 8.61C17.2592 8.61 17.9144 9.26527 17.9144 10.0736ZM11.0127 10.0736C11.0127 10.8807 10.3593 11.5353 9.55257 11.5371L9.5491 11.5372C8.7408 11.5372 8.08553 10.8819 8.08553 10.0736C8.08553 9.26643 8.73893 8.61187 9.54564 8.61001L9.54911 8.61C10.3574 8.61 11.0127 9.26527 11.0127 10.0736ZM8.98564 14.0864C8.85751 13.6102 8.36761 13.3281 7.89144 13.4562C7.41527 13.5843 7.13314 14.0742 7.26129 14.5504C7.94266 17.0824 10.2537 18.9473 13.0025 18.9473C15.7513 18.9473 18.0623 17.0824 18.7437 14.5504C18.8719 14.0742 18.5897 13.5843 18.1136 13.4562C17.6374 13.3281 17.1475 13.6102 17.0193 14.0864C16.5425 15.8584 14.9235 17.1615 13.0025 17.1615C11.0815 17.1615 9.46251 15.8584 8.98564 14.0864Z" fill="#FF6200"/>
</g>
<defs>
<clipPath id="clip0_267_443">
<rect width="20" height="20" fill="white" transform="translate(3 3)"/>
</clipPath>
</defs>
</svg>
