<svg width="26" height="26" viewBox="0 0 26 26" fill="none" xmlns="http://www.w3.org/2000/svg">
<path d="M4.33301 7.36675C4.33301 5.54658 4.33301 4.63649 4.68724 3.94128C4.99883 3.32975 5.49601 2.83257 6.10754 2.52098C6.80275 2.16675 7.71284 2.16675 9.53301 2.16675H15.1663L21.6663 8.66675V18.6334C21.6663 20.4536 21.6663 21.3637 21.3121 22.0589C21.0005 22.6704 20.5033 23.1676 19.8918 23.4792C19.1966 23.8334 18.2865 23.8334 16.4663 23.8334H9.53301C7.71284 23.8334 6.80275 23.8334 6.10754 23.4792C5.49601 23.1676 4.99883 22.6704 4.68724 22.0589C4.33301 21.3637 4.33301 20.4536 4.33301 18.6334V7.36675Z" fill="#FF6200"/>
<path d="M10.833 9.75008H8.66634Z" fill="#FF6200"/>
<path d="M16.9997 14.1134H8.33301M16.9997 18.4467H8.33301M10.4997 9.78003H8.33301" stroke="white" stroke-width="2" stroke-linecap="round" stroke-linejoin="round"/>
<path d="M21.7271 8.72734L15.1816 2.18188V7.72734C15.1816 8.27962 15.6294 8.72734 16.1816 8.72734H21.7271Z" fill="#6C737F"/>
</svg>
