<svg width="26" height="26" viewBox="0 0 26 26" fill="none" xmlns="http://www.w3.org/2000/svg">
<path d="M4.33301 7.36699C4.33301 5.54682 4.33301 4.63674 4.68724 3.94152C4.99883 3.33 5.49601 2.83281 6.10754 2.52122C6.80275 2.16699 7.71284 2.16699 9.53301 2.16699H15.1663L21.6663 8.66699V18.6337C21.6663 20.4538 21.6663 21.3639 21.3121 22.0591C21.0005 22.6707 20.5033 23.1678 19.8918 23.4794C19.1966 23.8337 18.2865 23.8337 16.4663 23.8337H9.53301C7.71284 23.8337 6.80275 23.8337 6.10754 23.4794C5.49601 23.1678 4.99883 22.6707 4.68724 22.0591C4.33301 21.3639 4.33301 20.4538 4.33301 18.6337V7.36699Z" fill="#9DA4AE"/>
<path d="M10.833 9.75033H8.66634Z" fill="#9DA4AE"/>
<path d="M16.9997 14.1131H8.33301M16.9997 18.4465H8.33301M10.4997 9.77979H8.33301" stroke="white" stroke-width="2" stroke-linecap="round" stroke-linejoin="round"/>
<path d="M21.7271 8.7271L15.1816 2.18164V7.7271C15.1816 8.27938 15.6294 8.7271 16.1816 8.7271H21.7271Z" fill="#6C737F"/>
</svg>
