<svg width="11" height="12" viewBox="0 0 11 12" fill="none" xmlns="http://www.w3.org/2000/svg">
<path d="M5.03834 1.10996C5.20914 0.699318 5.79086 0.699318 5.96166 1.10996L7.10199 3.85164C7.17399 4.02476 7.3368 4.14305 7.52369 4.15803L10.4836 4.39532C10.9269 4.43086 11.1067 4.98412 10.7689 5.27345L8.51378 7.2052C8.37138 7.32717 8.3092 7.51856 8.3527 7.70094L9.04167 10.5893C9.14487 11.0219 8.67424 11.3638 8.29469 11.132L5.76063 9.58419C5.60062 9.48646 5.39938 9.48646 5.23937 9.58419L2.70531 11.132C2.32576 11.3638 1.85513 11.0219 1.95833 10.5893L2.6473 7.70094C2.6908 7.51856 2.62862 7.32717 2.48622 7.2052L0.231111 5.27345C-0.106658 4.98412 0.0731051 4.43086 0.516432 4.39532L3.47631 4.15803C3.6632 4.14305 3.82601 4.02476 3.89801 3.85164L5.03834 1.10996Z" fill="#FF7122"/>
</svg>
