<svg width="20" height="20" viewBox="0 0 20 20" fill="none" xmlns="http://www.w3.org/2000/svg">
<g clip-path="url(#clip0_267_358)">
<path d="M4.16711 11.6667H15.1135C15.9576 11.6667 16.3796 11.6667 16.7155 11.5094C17.0115 11.3708 17.2601 11.1482 17.4306 10.8694C17.6241 10.5529 17.6707 10.1334 17.7639 9.29457L18.2514 4.90704C18.2799 4.65082 18.2941 4.52271 18.2529 4.42355C18.2167 4.33646 18.1521 4.26422 18.0695 4.21865C17.9755 4.16675 17.8466 4.16675 17.5888 4.16675H3.75044M1.66699 1.66675H2.70736C2.92788 1.66675 3.03814 1.66675 3.1244 1.70869C3.20034 1.7456 3.26327 1.80473 3.30486 1.87822C3.35209 1.96169 3.35897 2.07174 3.37273 2.29183L4.12792 14.375C4.14168 14.5951 4.14856 14.7051 4.19579 14.7886C4.23738 14.8621 4.30031 14.9212 4.37625 14.9581C4.46251 15.0001 4.57277 15.0001 4.79329 15.0001H15.8337M6.25033 17.9167H6.25866M13.7503 17.9167H13.7587M6.66699 17.9167C6.66699 18.1469 6.48044 18.3334 6.25033 18.3334C6.02021 18.3334 5.83366 18.1469 5.83366 17.9167C5.83366 17.6866 6.02021 17.5001 6.25033 17.5001C6.48044 17.5001 6.66699 17.6866 6.66699 17.9167ZM14.167 17.9167C14.167 18.1469 13.9804 18.3334 13.7503 18.3334C13.5202 18.3334 13.3337 18.1469 13.3337 17.9167C13.3337 17.6866 13.5202 17.5001 13.7503 17.5001C13.9804 17.5001 14.167 17.6866 14.167 17.9167Z" stroke="white" stroke-width="2" stroke-linecap="round" stroke-linejoin="round"/>
</g>
<defs>
<clipPath id="clip0_267_358">
<rect width="20" height="20" fill="white"/>
</clipPath>
</defs>
</svg>
