<svg width="28" height="28" viewBox="0 0 28 28" fill="none" xmlns="http://www.w3.org/2000/svg">
<path d="M16.1174 18.3681C16.1174 19.7156 16.1174 20.3894 16.3896 20.7197C16.626 21.0067 16.9829 21.1669 17.3545 21.153C17.7822 21.137 18.2858 20.6894 19.2929 19.7941L25.2455 14.503C25.8003 14.0098 26.0778 13.7632 26.18 13.472C26.2698 13.2163 26.2698 12.9376 26.18 12.6819C26.0778 12.3907 25.8003 12.1441 25.2455 11.6509L19.2929 6.35974C18.2858 5.46448 17.7822 5.01685 17.3545 5.00084C16.9829 4.98693 16.626 5.14716 16.3896 5.43414C16.1174 5.76446 16.1174 6.43824 16.1174 7.78579V18.3681Z" fill="#FF6200"/>
<path d="M3.43737 18.3681C3.43737 19.7156 3.43737 20.3894 3.70957 20.7197C3.94605 21.0067 4.30287 21.1669 4.67446 21.153C5.10219 21.137 5.60578 20.6894 6.61295 19.7941L12.5655 14.503C13.1203 14.0098 13.3978 13.7632 13.5 13.472C13.5898 13.2163 13.5898 12.9376 13.5 12.6819C13.3978 12.3907 13.1203 12.1441 12.5655 11.6509L6.61295 6.35974C5.60578 5.46448 5.10219 5.01684 4.67446 5.00084C4.30287 4.98693 3.94605 5.14716 3.70957 5.43413C3.43737 5.76446 3.43737 6.43823 3.43737 7.78578V18.3681Z" fill="#FF6200"/>
</svg>
