<svg width="18" height="18" viewBox="0 0 18 18" fill="none" xmlns="http://www.w3.org/2000/svg">
<path d="M1 8.5C1 4.35786 4.35786 1 8.5 1V1C12.6421 1 16 4.35786 16 8.5V8.5C16 12.6421 12.6421 16 8.5 16V16C4.35786 16 1 12.6421 1 8.5V8.5Z" fill="#299C11"/>
<path fill-rule="evenodd" clip-rule="evenodd" d="M11.6853 5.61879L7.21025 9.93754L6.02275 8.66879C5.804 8.46254 5.46025 8.45004 5.21025 8.62504C4.9665 8.80629 4.89775 9.12504 5.04775 9.38129L6.454 11.6688C6.5915 11.8813 6.829 12.0125 7.09775 12.0125C7.354 12.0125 7.59775 11.8813 7.73525 11.6688C7.96025 11.375 12.254 6.25629 12.254 6.25629C12.8165 5.68129 12.1353 5.17504 11.6853 5.61254V5.61879Z" fill="white"/>
</svg>
